<?xml version="1.0" encoding="utf-8"?>
<!-- Generator: Adobe Illustrator 16.0.0, SVG Export Plug-In . SVG Version: 6.00 Build 0)  -->
<!DOCTYPE svg PUBLIC "-//W3C//DTD SVG 1.1//EN" "http://www.w3.org/Graphics/SVG/1.1/DTD/svg11.dtd">
<svg version="1.1" id="Layer_1" xmlns="http://www.w3.org/2000/svg" xmlns:xlink="http://www.w3.org/1999/xlink" x="0px" y="0px"
	 width="20px" height="20px" viewBox="0 0 20 20" enable-background="new 0 0 20 20" xml:space="preserve">
<g>
	<path fill="#010101" d="M13.166,10.225c0.924-0.869,1.443-2.066,1.443-3.35c0-2.541-2.068-4.609-4.609-4.609
		S5.391,4.334,5.391,6.875c0,1.283,0.521,2.48,1.442,3.35c-2.909,0.916-4.567,3.091-4.567,6.025v1.484h15.469V16.25
		C17.734,13.315,16.076,11.141,13.166,10.225z M17.266,17.266H2.734V16.25c0-1.477,0.436-2.732,1.295-3.729
		c0.792-0.919,1.949-1.599,3.346-1.966l0.458-0.12l-0.374-0.291c-1.017-0.791-1.6-1.982-1.6-3.27c0-2.283,1.857-4.141,4.141-4.141
		s4.141,1.857,4.141,4.141c0,1.287-0.584,2.479-1.6,3.27l-0.374,0.291l0.458,0.12c1.396,0.367,2.553,1.047,3.347,1.966
		c0.858,0.996,1.294,2.252,1.294,3.729V17.266z"/>
</g>
</svg>
