<svg xmlns="http://www.w3.org/2000/svg" xmlns:xlink="http://www.w3.org/1999/xlink" version="1.1" x="0px" y="0px" viewBox="-247 370.9 100 100" enable-background="new -247 370.9 100 100" xml:space="preserve"><path fill="#000000" d="M-171.3,441.6v-31.5c0-14.3-11.6-25.9-25.9-25.9s-25.9,11.6-25.9,25.9v31.8c-5.8,4.4-9.5,11.4-9.5,19.2  c0,1,0.8,1.8,1.8,1.8h67.5c1,0,1.8-0.8,1.8-1.8C-161.4,453.1-165.3,446-171.3,441.6z M-219.4,439.6v-29.5c0-12.3,10-22.2,22.2-22.2  s22.2,10,22.2,22.2v29.3c-0.1,0-0.1,0-0.2-0.1c-0.1,0-0.1-0.1-0.2-0.1c-0.4-0.2-0.8-0.3-1.2-0.5c-0.3-0.1-0.6-0.2-0.9-0.3  c0,0,0,0-0.1,0v-32.6c0-1-0.8-1.8-1.8-1.8h-35.9c-1,0-1.8,0.8-1.8,1.8v32.8c-0.2,0.1-0.3,0.1-0.5,0.2c-0.2,0.1-0.3,0.1-0.5,0.2  c-0.2,0.1-0.5,0.2-0.7,0.3c-0.1,0.1-0.3,0.1-0.4,0.2C-219.2,439.5-219.3,439.6-219.4,439.6z M-184.5,437c1.2-0.7,2.4-1.5,3.5-2.4  v2.8C-182.2,437.2-183.3,437-184.5,437z M-181,429.7c-4.2,4.4-10,7-16.1,7c-6.1,0-12-2.5-16.1-7v-22.2h32.3V429.7z M-213.3,434.6  c1.1,0.9,2.3,1.7,3.5,2.4c-1.2,0.1-2.4,0.2-3.5,0.5V434.6z M-220.1,444.3c0.3-0.2,0.7-0.5,1.1-0.7c0.1-0.1,0.2-0.1,0.4-0.2  c0.4-0.2,0.7-0.4,1.1-0.6c0.1-0.1,0.2-0.1,0.4-0.2c0.3-0.1,0.6-0.3,0.9-0.4c0.1,0,0.2-0.1,0.3-0.1c0.4-0.2,0.8-0.3,1.2-0.4  c2-0.7,4.2-1,6.4-1h9.6v18.7h-30C-228.3,453.1-225,447.6-220.1,444.3z M-183.4,459.3v-6.5h6.5v6.5H-183.4z M-173.2,459.3V451  c0-1-0.8-1.8-1.8-1.8h-10.1c-1,0-1.8,0.8-1.8,1.8v8.3h-8.2v-18.7h9.6c2,0,4,0.3,5.8,0.8c0,0,0,0,0,0c0.4,0.1,0.9,0.3,1.3,0.4  c0.1,0,0.2,0.1,0.3,0.1c0.4,0.2,0.8,0.3,1.2,0.5c0.1,0.1,0.3,0.1,0.4,0.2c0.3,0.1,0.5,0.3,0.8,0.4c0.2,0.1,0.4,0.2,0.7,0.4  c0.2,0.1,0.4,0.3,0.7,0.4c5.2,3.4,8.8,9,9.3,15.4H-173.2z"></path><path fill="#000000" d="M-203.6,422.4c0,0.1,0,0.1,0,0.2c0,0.1,0,0.1,0,0.2c0,0.1,0,0.1,0.1,0.2c0,0.1,0,0.1,0.1,0.2  c0,0.1,0.1,0.1,0.1,0.2c0,0,0.1,0.1,0.1,0.1c0,0,0.1,0.1,0.1,0.1c0,0,0.1,0.1,0.1,0.1c0,0,0.1,0.1,0.1,0.1c0.1,0,0.1,0.1,0.2,0.1  c0,0,0.1,0,0.1,0.1c0,0,0,0,0,0c0.1,0,0.2,0.1,0.3,0.1c0,0,0.1,0,0.1,0c0.1,0,0.2,0,0.3,0c0,0,0,0,0.1,0c0,0,0,0,0,0h4.6l-1.4,3  c-0.4,0.9,0,2,0.9,2.4c0.3,0.1,0.5,0.2,0.8,0.2c0.7,0,1.3-0.4,1.6-1l2.6-5.6c0,0,0,0,0,0c0-0.1,0-0.1,0.1-0.2c0-0.1,0-0.1,0-0.2  c0-0.1,0-0.1,0-0.2c0-0.1,0-0.1,0-0.2c0,0,0,0,0,0c0,0,0-0.1,0-0.1c0-0.1,0-0.1,0-0.2c0-0.1,0-0.1,0-0.2c0-0.1,0-0.1-0.1-0.2  c0-0.1,0-0.1-0.1-0.2c0-0.1-0.1-0.1-0.1-0.2c0,0-0.1-0.1-0.1-0.1c0,0-0.1-0.1-0.1-0.1c0,0-0.1-0.1-0.1-0.1c0,0-0.1-0.1-0.1-0.1  c-0.1,0-0.1-0.1-0.2-0.1c0,0-0.1,0-0.1-0.1c0,0,0,0,0,0c-0.1,0-0.1,0-0.2-0.1c-0.1,0-0.1,0-0.2-0.1c0,0-0.1,0-0.1,0  c-0.1,0-0.1,0-0.2,0c0,0,0,0,0,0h-4.6l3.6-7.6c0.4-0.9,0-2-0.9-2.4c-0.9-0.4-2,0-2.4,0.9l-4.8,10.1c0,0,0,0,0,0c0,0.1,0,0.1-0.1,0.2  c0,0.1,0,0.1,0,0.2c0,0.1,0,0.1,0,0.2c0,0.1,0,0.1,0,0.2c0,0,0,0,0,0C-203.6,422.3-203.6,422.3-203.6,422.4z"></path><circle fill="#000000" cx="-185.4" cy="412.1" r="1.8"></circle><circle fill="#000000" cx="-208.8" cy="412.1" r="1.8"></circle></svg>