<svg xmlns="http://www.w3.org/2000/svg" xmlns:xlink="http://www.w3.org/1999/xlink" version="1.1" x="0px" y="0px" viewBox="-247 370.9 100 100" enable-background="new -247 370.9 100 100" xml:space="preserve"><path fill="#000000" d="M-184.4,436.9c7.9-4.4,13.2-12.9,13.2-22.5c0-5.8-1.9-11.1-5.1-15.4c0,0,0-0.1-0.1-0.1c0,0-0.1-0.1-0.1-0.1  c-1.9-2.4-4.1-4.5-6.7-6.2c0.1-0.7,0.2-1.5,0.2-2.2c0-7.6-6.2-13.8-13.8-13.8c-7.6,0-13.8,6.2-13.8,13.8c0,0.7,0.1,1.3,0.2,2  c-7.4,4.5-12.4,12.7-12.4,22c0,9.7,5.3,18.1,13.2,22.5c-12.7,0.6-22.9,11.2-22.9,24.1c0,1,0.8,1.8,1.8,1.8h67.5c1,0,1.8-0.8,1.8-1.8  C-161.4,448.1-171.6,437.5-184.4,436.9z M-180.5,399.5c-1.4,0.7-2.9,1.1-4.5,1.1c-5,0-9.1-3.6-10-8.3  C-189.3,392.7-184.2,395.4-180.5,399.5z M-196.8,380.1c5.6,0,10.2,4.6,10.2,10.2c0,0.1,0,0.3,0,0.4c-3.2-1.4-6.7-2.2-10.4-2.2  c-3.5,0-6.9,0.7-10,2c0-0.1,0-0.1,0-0.2C-207,384.7-202.4,380.1-196.8,380.1z M-198.9,392.2c-0.9,10.7-9.5,19.3-20.3,20.3  C-218.2,401.7-209.6,393.1-198.9,392.2z M-219.2,416.1c10.7-0.8,19.6-8.1,22.8-18c2.5,3.6,6.7,6,11.4,6c2.4,0,4.7-0.6,6.7-1.8  c2.2,3.5,3.5,7.6,3.5,12c0,12.3-10,22.2-22.2,22.2C-208.7,436.6-218.3,427.6-219.2,416.1z M-228.9,459.2  c0.9-10.5,9.7-18.7,20.4-18.7h1.4l7.6,18.7H-228.9z M-203.5,439.4c2.1,0.5,4.3,0.8,6.5,0.8s4.5-0.3,6.5-0.8l-6.5,16.1L-203.5,439.4z   M-194.6,459.2l7.6-18.7h1.4c10.7,0,19.5,8.2,20.4,18.7H-194.6z"></path><path fill="#000000" d="M-195.4,428.5l2.6-5.6c0,0,0,0,0,0c0-0.1,0-0.1,0.1-0.2c0-0.1,0-0.1,0-0.2c0-0.1,0-0.1,0-0.2  c0-0.1,0-0.1,0-0.2c0,0,0,0,0,0c0,0,0-0.1,0-0.1c0-0.1,0-0.1,0-0.2c0-0.1,0-0.1,0-0.2c0-0.1,0-0.1-0.1-0.2c0-0.1,0-0.1-0.1-0.2  c0-0.1-0.1-0.1-0.1-0.2c0,0-0.1-0.1-0.1-0.1c0,0-0.1-0.1-0.1-0.1c0,0-0.1-0.1-0.1-0.1c0,0-0.1-0.1-0.1-0.1c-0.1,0-0.1-0.1-0.2-0.1  c0,0-0.1,0-0.1-0.1c0,0,0,0,0,0c-0.1,0-0.1,0-0.2-0.1c-0.1,0-0.1,0-0.2,0c0,0-0.1,0-0.2,0c-0.1,0-0.1,0-0.2,0c0,0,0,0,0,0h-4.6  l3.6-7.6c0.4-0.9,0-2-0.9-2.4c-0.9-0.4-2,0-2.4,0.9l-4.8,10.1c0,0,0,0,0,0c0,0.1,0,0.1-0.1,0.2c0,0.1,0,0.1,0,0.2c0,0.1,0,0.1,0,0.2  c0,0.1,0,0.1,0,0.2c0,0,0,0,0,0c0,0,0,0.1,0,0.1c0,0.1,0,0.1,0,0.2c0,0.1,0,0.1,0,0.2c0,0.1,0,0.1,0.1,0.2c0,0.1,0,0.1,0.1,0.2  c0,0.1,0.1,0.1,0.1,0.2c0,0,0.1,0.1,0.1,0.1c0,0,0.1,0.1,0.1,0.1c0,0,0.1,0.1,0.1,0.1c0,0,0.1,0.1,0.1,0.1c0.1,0,0.1,0.1,0.2,0.1  c0,0,0.1,0,0.1,0.1c0,0,0,0,0,0c0.1,0,0.2,0.1,0.3,0.1c0,0,0.1,0,0.1,0c0.1,0,0.2,0,0.3,0c0,0,0,0,0.1,0c0,0,0,0,0,0h4.6l-1.4,3  c-0.4,0.9,0,2,0.9,2.4c0.3,0.1,0.5,0.2,0.8,0.2C-196.3,429.5-195.7,429.1-195.4,428.5z"></path><circle fill="#000000" cx="-185.2" cy="412" r="1.8"></circle></svg>