<svg xmlns="http://www.w3.org/2000/svg" xmlns:xlink="http://www.w3.org/1999/xlink" version="1.1" x="0px" y="0px" viewBox="-247 370.9 100 100" enable-background="new -247 370.9 100 100" xml:space="preserve"><path fill="#000000" d="M-213.5,416c1.5,1.5,3.5,2.3,5.7,2.3h0c1.4,0,2.7-0.4,3.9-1l0.4-0.2l0.2-0.4c1.8-3.1,1.2-7.1-1.3-9.6  c-1.5-1.5-3.5-2.3-5.7-2.3c-1.4,0-2.7,0.4-3.9,1l-0.4,0.2l-0.2,0.4C-216.6,409.6-216,413.5-213.5,416z M-211.9,408.7  c0.5-0.2,1.1-0.3,1.7-0.3c1.2,0,2.3,0.5,3.1,1.3c1.3,1.3,1.6,3.2,0.9,4.8c-0.5,0.2-1.1,0.3-1.7,0.3c-1.2,0-2.3-0.5-3.1-1.3  C-212.2,412.2-212.5,410.3-211.9,408.7z"></path><path fill="#000000" d="M-191.2,416.7l0.2,0.4l0.4,0.2c1.2,0.7,2.6,1,3.9,1c0,0,0,0,0,0c2.1,0,4.1-0.8,5.7-2.3  c2.5-2.5,3.1-6.5,1.3-9.6l-0.2-0.4l-0.4-0.2c-1.2-0.7-2.6-1-3.9-1c-2.1,0-4.1,0.8-5.7,2.3C-192.4,409.6-192.9,413.5-191.2,416.7z   M-187.3,409.6c0.8-0.8,1.9-1.3,3.1-1.3c0.6,0,1.2,0.1,1.7,0.3c0.7,1.6,0.3,3.5-0.9,4.8c-0.8,0.8-1.9,1.3-3.1,1.3h0  c-0.6,0-1.2-0.1-1.7-0.3C-188.9,412.8-188.6,410.9-187.3,409.6z"></path><path fill="#000000" d="M-165.5,447.4c0,0-0.1-0.1-0.1-0.1c-1.7-2.5-3.8-4.7-6.3-6.5c-0.1-0.1-0.1-0.1-0.2-0.2  c-3.6-2.5-7.9-4-12.6-4.2c0.5-0.3,1.1-0.6,1.6-1c5.3-3.5,9.1-8.9,10.7-15c0,0,0,0,0-0.1c0.1-0.5,0.2-0.9,0.3-1.4  c0-0.2,0.1-0.3,0.1-0.5c0.1-0.3,0.1-0.7,0.2-1c0-0.2,0-0.3,0.1-0.5c0-0.4,0.1-0.7,0.1-1.1c0-0.1,0-0.3,0-0.4c0-0.5,0-1,0-1.5  c0-0.5,0-1,0-1.5c0-0.1,0-0.2,0-0.3c0-0.4-0.1-0.8-0.1-1.2c0-0.1,0-0.2,0-0.3c-0.1-0.4-0.1-0.8-0.2-1.2c0-0.1,0-0.1,0-0.2  c-0.1-0.5-0.2-0.9-0.3-1.4c0,0,0,0,0,0c-0.2-1-0.5-2-0.9-2.9c0-0.1-0.1-0.2-0.1-0.2c-0.1-0.4-0.3-0.7-0.4-1.1  c-0.1-0.2-0.1-0.3-0.2-0.5c-0.1-0.3-0.2-0.5-0.4-0.8c0-0.1,0-0.1-0.1-0.2c0-0.1-0.1-0.2-0.2-0.4c0-0.1-0.1-0.1-0.1-0.2  c0,0,0-0.1,0-0.1c-0.2-0.3-0.4-0.6-0.5-0.9c0-0.1-0.1-0.1-0.1-0.2c-0.2-0.3-0.3-0.6-0.5-0.8c0-0.1-0.1-0.1-0.1-0.2  c-0.2-0.3-0.4-0.6-0.6-0.9c0,0,0,0-0.1-0.1c-0.2-0.3-0.5-0.6-0.7-0.9c-0.1-0.1-0.2-0.2-0.3-0.3c-0.1-0.2-0.3-0.3-0.4-0.5  c-0.1-0.1-0.2-0.3-0.4-0.4c-0.1-0.1-0.3-0.3-0.4-0.4c-0.1-0.1-0.3-0.3-0.4-0.4c-0.1-0.1-0.3-0.3-0.4-0.4c-0.2-0.2-0.3-0.3-0.5-0.5  c-0.2-0.2-0.4-0.4-0.7-0.6c-0.1-0.1-0.2-0.2-0.4-0.3c-0.2-0.1-0.4-0.3-0.6-0.4c-0.1-0.1-0.2-0.2-0.3-0.3c-0.2-0.2-0.4-0.3-0.7-0.5  c-0.1-0.1-0.2-0.1-0.3-0.2c-0.7-0.4-1.3-0.8-2-1.2c0,0,0,0-0.1,0c-0.2-0.1-0.5-0.2-0.7-0.4c-0.1,0-0.1-0.1-0.2-0.1  c-0.3-0.1-0.5-0.2-0.8-0.4c-0.2-0.1-0.3-0.2-0.5-0.2c-0.4-0.2-0.7-0.3-1.1-0.4c-0.3-0.1-0.5-0.2-0.8-0.3c-0.2-0.1-0.4-0.1-0.6-0.2  c-0.3-0.1-0.5-0.2-0.8-0.2c-0.2,0-0.4-0.1-0.5-0.1c-0.3-0.1-0.5-0.1-0.8-0.2c-0.2,0-0.4-0.1-0.6-0.1c-0.3-0.1-0.5-0.1-0.8-0.1  c-0.2,0-0.4-0.1-0.6-0.1c-0.2,0-0.5-0.1-0.7-0.1c-0.3,0-0.5,0-0.8-0.1c-0.2,0-0.4,0-0.6,0c-0.5,0-0.9,0-1.4,0s-0.9,0-1.4,0  c-0.2,0-0.4,0-0.6,0c-0.3,0-0.5,0-0.8,0.1c-0.2,0-0.5,0.1-0.7,0.1c-0.2,0-0.4,0.1-0.6,0.1c-0.3,0-0.5,0.1-0.8,0.1  c-0.2,0-0.4,0.1-0.6,0.1c-0.3,0.1-0.5,0.1-0.8,0.2c-0.2,0-0.4,0.1-0.5,0.1c-0.3,0.1-0.5,0.1-0.8,0.2c-0.2,0.1-0.4,0.1-0.6,0.2  c-0.3,0.1-0.5,0.2-0.8,0.3c-0.4,0.1-0.7,0.3-1.1,0.4c-0.2,0.1-0.3,0.2-0.5,0.2c-0.3,0.1-0.5,0.2-0.8,0.4c-0.1,0-0.1,0.1-0.2,0.1  c-0.2,0.1-0.5,0.2-0.7,0.4c0,0-0.1,0-0.1,0c-0.7,0.4-1.4,0.8-2,1.2c-0.1,0.1-0.2,0.1-0.3,0.2c-0.2,0.2-0.4,0.3-0.7,0.5  c-0.1,0.1-0.2,0.2-0.4,0.3c-0.2,0.1-0.4,0.3-0.5,0.4c-0.1,0.1-0.3,0.2-0.4,0.3c-0.2,0.1-0.3,0.3-0.5,0.4c-0.2,0.2-0.5,0.4-0.7,0.6  c-0.1,0.1-0.3,0.3-0.4,0.4c-0.1,0.1-0.3,0.3-0.4,0.4c-0.1,0.1-0.3,0.3-0.4,0.4c-0.1,0.1-0.3,0.3-0.4,0.4c-0.1,0.2-0.3,0.3-0.4,0.5  c-0.1,0.1-0.2,0.2-0.3,0.4c-0.2,0.2-0.4,0.5-0.5,0.7c0,0.1-0.1,0.1-0.1,0.2c-0.2,0.3-0.5,0.6-0.7,1c0,0,0,0.1-0.1,0.1  c-0.2,0.3-0.4,0.6-0.6,0.9c0,0.1-0.1,0.1-0.1,0.2c-0.2,0.3-0.3,0.6-0.5,0.9c0,0.1-0.1,0.1-0.1,0.2c0,0.1-0.1,0.2-0.1,0.3  c-0.1,0.1-0.1,0.2-0.2,0.3c-0.1,0.3-0.3,0.5-0.4,0.8c-0.1,0.2-0.1,0.3-0.2,0.5c-0.2,0.3-0.3,0.7-0.4,1c0,0.1-0.1,0.2-0.1,0.2  c-0.4,0.9-0.7,1.9-0.9,2.9c0,0,0,0,0,0c-0.1,0.5-0.2,0.9-0.3,1.4c0,0.1,0,0.2,0,0.2c-0.1,0.4-0.1,0.8-0.2,1.2c0,0.1,0,0.2,0,0.3  c0,0.4-0.1,0.8-0.1,1.2c0,0.1,0,0.2,0,0.4c0,0.5,0,0.9,0,1.4c0,0,0,0,0,0.1c0,0,0,0,0,0c0,0.5,0,1,0,1.5c0,0.2,0,0.3,0,0.5  c0,0.4,0.1,0.7,0.1,1.1c0,0.2,0,0.3,0.1,0.5c0,0.3,0.1,0.7,0.2,1c0,0.2,0.1,0.3,0.1,0.5c0.1,0.5,0.2,0.9,0.3,1.4c0,0,0,0,0,0.1  c1.6,6.2,5.4,11.5,10.7,15c0.5,0.4,1.1,0.7,1.6,1c-4.4,0.3-8.6,1.7-12.1,4.1c-0.1,0-0.1,0.1-0.2,0.1c-2.5,1.8-4.7,4-6.4,6.5  c0,0-0.1,0.1-0.1,0.1c0,0,0,0,0,0c-2.5,3.8-3.9,8.3-3.9,13.2c0,1,0.8,1.8,1.8,1.8h67.5c1,0,1.8-0.8,1.8-1.8  C-161.6,455.7-163.1,451.2-165.5,447.4C-165.5,447.4-165.5,447.4-165.5,447.4z M-169.8,447.6c-1.6,0.7-3.4,1.3-5.4,1.9  c-0.5-0.9-1-1.8-1.6-2.7c1.8-0.5,3.3-1.2,4.3-2C-171.6,445.6-170.7,446.6-169.8,447.6z M-188,457.2c0,0.5,0,1-0.1,1.5h-7.3v-3  c2.5,0,4.9-0.2,7.2-0.4C-188.1,456-188,456.6-188,457.2z M-206.3,458.8c0-0.5-0.1-1-0.1-1.5c0-0.6,0-1.3,0.1-1.9  c2.3,0.2,4.8,0.3,7.2,0.4v3H-206.3z M-215,443.7c-0.1,0-0.2-0.1-0.3-0.1c-0.1,0-0.2,0-0.2-0.1c-0.1,0-0.2,0-0.3-0.1  c-0.1,0-0.2,0-0.2-0.1c-0.1,0-0.2,0-0.3-0.1c-0.1,0-0.1,0-0.2-0.1c-0.1,0-0.2,0-0.2-0.1c-0.1,0-0.1,0-0.2-0.1c-0.1,0-0.1,0-0.2-0.1  c-0.1,0-0.1,0-0.2-0.1c-0.1,0-0.1,0-0.2-0.1c-0.1,0-0.1,0-0.2-0.1c-0.1,0-0.1,0-0.2-0.1c-0.1,0-0.1,0-0.2-0.1c-0.1,0-0.1,0-0.2-0.1  c-0.1,0-0.1,0-0.1-0.1c0,0,0,0,0,0c2.6-1.4,5.5-2.3,8.6-2.5c-1.7,1-3.2,2.3-4.6,3.7c-0.1,0-0.2,0-0.3-0.1  C-214.8,443.7-214.9,443.7-215,443.7z M-212.9,398c0.3-0.3,0.6-0.6,0.9-0.8c0.1-0.1,0.1-0.1,0.2-0.2c0.3-0.3,0.7-0.6,1-0.8  c0,0,0,0,0,0c0.3-0.3,0.7-0.5,1.1-0.8c0.1-0.1,0.2-0.1,0.3-0.2c0.3-0.2,0.5-0.3,0.8-0.5c0.1,0,0.2-0.1,0.2-0.1c0,0,0.1,0,0.1,0.1  c0.4,0.3,0.8,0.6,1.2,1c0.1,0.1,0.1,0.1,0.2,0.2c0.3,0.3,0.6,0.6,0.9,0.9c0.1,0.1,0.2,0.2,0.4,0.4c0.3,0.3,0.5,0.5,0.8,0.8  c0.1,0.1,0.2,0.2,0.3,0.4c0.3,0.4,0.6,0.8,0.9,1.2c0,0,0,0,0,0c0,0,0,0,0,0c-0.2-0.1-0.5-0.2-0.7-0.4c-0.1,0-0.1-0.1-0.2-0.1  c-0.2-0.1-0.4-0.2-0.6-0.2c-0.1,0-0.2-0.1-0.3-0.1c-0.2-0.1-0.3-0.1-0.5-0.2c-0.1,0-0.2-0.1-0.3-0.1c-0.2-0.1-0.4-0.1-0.6-0.2  c0,0-0.1,0-0.1,0c-0.3-0.1-0.5-0.1-0.8-0.2c-0.1,0-0.2,0-0.2,0c-0.2,0-0.4-0.1-0.6-0.1c-0.1,0-0.2,0-0.3,0c-0.2,0-0.4,0-0.6-0.1  c-0.1,0-0.2,0-0.3,0c-0.3,0-0.6,0-0.8,0c-0.4,0-0.9,0-1.3,0.1c0,0,0,0,0,0C-212,397.9-212.4,398-212.9,398  C-212.8,398-212.8,398-212.9,398C-212.9,398-212.9,398-212.9,398C-212.9,398-212.9,398-212.9,398z M-203.6,392.6  c0.2-0.1,0.4-0.1,0.6-0.2c0.2-0.1,0.4-0.1,0.6-0.1c0.3-0.1,0.6-0.1,1-0.2c0.3,0,0.5-0.1,0.8-0.1c0.2,0,0.4,0,0.6-0.1  c0.2,0,0.5-0.1,0.7-0.1c0.1,0,0.2,0,0.2,0v7.5c-0.1-0.2-0.2-0.4-0.4-0.6c0-0.1-0.1-0.1-0.1-0.2c-0.2-0.4-0.5-0.7-0.8-1.1  c-0.1-0.1-0.1-0.2-0.2-0.3c-0.2-0.3-0.4-0.6-0.7-0.9c-0.1-0.1-0.1-0.2-0.2-0.2c-0.3-0.3-0.6-0.7-0.9-1c-0.1-0.1-0.1-0.1-0.2-0.2  c-0.3-0.3-0.5-0.5-0.8-0.8c-0.1-0.1-0.2-0.2-0.2-0.2c-0.3-0.3-0.6-0.6-0.9-0.9c0.1,0,0.2-0.1,0.3-0.1  C-204,392.7-203.8,392.6-203.6,392.6z M-195.3,391.8c0.2,0,0.5,0.1,0.7,0.1c0.2,0,0.4,0,0.6,0.1c0.3,0,0.5,0.1,0.8,0.1  c0.3,0.1,0.6,0.1,1,0.2c0.2,0,0.4,0.1,0.6,0.1c0.2,0.1,0.4,0.1,0.6,0.2c0.2,0.1,0.4,0.1,0.6,0.2c0.1,0,0.2,0.1,0.3,0.1  c-0.3,0.3-0.6,0.6-1,0.9c-0.1,0.1-0.2,0.2-0.2,0.2c-0.3,0.3-0.6,0.6-0.8,0.9c0,0.1-0.1,0.1-0.1,0.2c-0.3,0.3-0.6,0.7-0.9,1  c-0.1,0.1-0.1,0.1-0.2,0.2c-0.3,0.3-0.5,0.6-0.8,1c0,0.1-0.1,0.1-0.1,0.2c-0.3,0.4-0.5,0.8-0.8,1.2c0,0-0.1,0.1-0.1,0.1  c-0.1,0.2-0.2,0.4-0.4,0.6v-7.5C-195.5,391.8-195.4,391.8-195.3,391.8z M-184,396.1C-184,396.1-184,396.1-184,396.1  c0.4,0.3,0.7,0.6,1.1,0.8c0.1,0.1,0.1,0.1,0.2,0.2c0.3,0.3,0.6,0.5,0.9,0.8c0,0,0,0,0.1,0.1c0,0,0,0,0,0c0,0-0.1,0-0.1,0  c-0.4-0.1-0.8-0.1-1.2-0.2c0,0,0,0,0,0c-0.4,0-0.9-0.1-1.3-0.1c-0.3,0-0.6,0-0.8,0c-0.1,0-0.2,0-0.3,0c-0.2,0-0.4,0-0.6,0.1  c-0.1,0-0.2,0-0.3,0c-0.2,0-0.4,0.1-0.6,0.1c-0.1,0-0.2,0-0.2,0c-0.3,0.1-0.5,0.1-0.8,0.2c-0.1,0-0.1,0-0.2,0  c-0.2,0.1-0.4,0.1-0.6,0.2c-0.1,0-0.2,0.1-0.3,0.1c-0.2,0.1-0.3,0.1-0.5,0.2c-0.1,0-0.2,0.1-0.3,0.1c-0.2,0.1-0.3,0.1-0.5,0.2  c-0.1,0-0.2,0.1-0.2,0.1c-0.2,0.1-0.5,0.2-0.7,0.3c0,0,0,0-0.1,0c0,0,0,0,0,0c0.3-0.4,0.6-0.8,1-1.2c0.1-0.1,0.2-0.2,0.3-0.3  c0.3-0.3,0.5-0.6,0.8-0.9c0.1-0.1,0.2-0.2,0.3-0.4c0.3-0.3,0.6-0.6,1-0.9c0.1-0.1,0.1-0.1,0.2-0.2c0.4-0.3,0.8-0.7,1.2-1  c0,0,0.1,0,0.1-0.1c0.1,0,0.2,0.1,0.2,0.1c0.3,0.2,0.5,0.3,0.8,0.5c0.1,0.1,0.2,0.1,0.3,0.2C-184.7,395.6-184.4,395.9-184,396.1z   M-175.9,442.6c0,0-0.1,0-0.2,0.1c-0.1,0-0.1,0-0.2,0.1c-0.1,0-0.1,0-0.2,0.1c-0.1,0-0.1,0-0.2,0.1c-0.1,0-0.1,0-0.2,0.1  c-0.1,0-0.1,0-0.2,0.1c-0.1,0-0.1,0-0.2,0.1c-0.1,0-0.1,0-0.2,0.1c-0.1,0-0.2,0-0.2,0.1c-0.1,0-0.1,0-0.2,0.1c-0.1,0-0.2,0-0.3,0.1  c-0.1,0-0.2,0-0.2,0.1c-0.1,0-0.2,0-0.3,0.1c-0.1,0-0.2,0-0.2,0.1c-0.1,0-0.2,0-0.3,0.1c-0.1,0-0.2,0-0.2,0.1  c-1.3-1.4-2.8-2.6-4.5-3.6C-181,440.4-178.3,441.3-175.9,442.6C-175.9,442.6-175.9,442.6-175.9,442.6z M-184.5,444.6  c-0.2,0-0.3,0-0.5,0.1c-0.1,0-0.2,0-0.4,0c-0.2,0-0.3,0-0.5,0.1c-0.1,0-0.3,0-0.4,0c-0.2,0-0.3,0-0.5,0.1c-0.1,0-0.3,0-0.4,0  c-0.2,0-0.4,0-0.5,0c0,0,0,0,0,0c-0.8-1.4-1.8-2.8-3-4c2.5,0.8,4.8,2,6.8,3.6c-0.1,0-0.1,0-0.2,0  C-184.2,444.6-184.4,444.6-184.5,444.6z M-193,445.3c-0.2,0-0.3,0-0.5,0c-0.2,0-0.5,0-0.7,0c-0.1,0-0.3,0-0.4,0c-0.2,0-0.5,0-0.7,0  v-3.8c1.3,1.1,2.5,2.4,3.5,3.7c-0.2,0-0.3,0-0.5,0C-192.6,445.3-192.8,445.3-193,445.3z M-200,445.3c-0.2,0-0.5,0-0.7,0  c-0.2,0-0.3,0-0.5,0c-0.2,0-0.5,0-0.7,0c-0.2,0-0.3,0-0.5,0c0,0-0.1,0-0.1,0c1-1.4,2.1-2.6,3.5-3.7v3.8c-0.2,0-0.4,0-0.6,0  C-199.7,445.3-199.9,445.3-200,445.3z M-207.5,444.9c-0.2,0-0.4,0-0.5-0.1c-0.1,0-0.3,0-0.4,0c-0.2,0-0.3,0-0.5-0.1  c-0.1,0-0.3,0-0.4,0c-0.2,0-0.3,0-0.5-0.1c-0.1,0-0.2,0-0.2,0c1.8-1.5,3.9-2.6,6.1-3.4c-1,1.2-2,2.4-2.8,3.8c-0.2,0-0.3,0-0.5,0  C-207.2,444.9-207.3,444.9-207.5,444.9z M-199.9,436c-0.2,0-0.4-0.1-0.6-0.1c-0.1,0-0.3,0-0.4-0.1c-0.2,0-0.4-0.1-0.6-0.1  c-0.1,0-0.3-0.1-0.4-0.1c-0.2,0-0.5-0.1-0.7-0.2c-0.1,0-0.2-0.1-0.3-0.1c-0.3-0.1-0.5-0.1-0.8-0.2c-0.1,0-0.1,0-0.2-0.1  c-0.3-0.1-0.6-0.2-0.9-0.3c0,0,0,0,0,0c-0.7-0.3-1.4-0.5-2-0.9c0,0,0.1-0.1,0.1-0.1c0.1-0.1,0.3-0.2,0.4-0.3  c0.3-0.2,0.6-0.4,0.9-0.7c0.2-0.1,0.3-0.2,0.5-0.4c0.3-0.2,0.6-0.5,0.8-0.7c0,0,0,0,0,0c1.6,0.6,3.3,1,5.1,1.2v3.1  c-0.1,0-0.2,0-0.3,0C-199.6,436-199.7,436-199.9,436z M-219.2,418.1c0-0.2-0.1-0.3-0.1-0.5c0-0.2-0.1-0.5-0.1-0.7  c0-0.2,0-0.3-0.1-0.5c0-0.3-0.1-0.5-0.1-0.8c0-0.1,0-0.3,0-0.4c0-0.4,0-0.8,0-1.2c0,0,0,0,0-0.1c0,0,0-0.1,0-0.1c0-0.4,0-0.8,0-1.1  c0-0.2,0-0.4,0-0.6c0-0.2,0-0.4,0.1-0.6c0-0.2,0.1-0.5,0.1-0.7c0-0.2,0-0.3,0.1-0.5c0-0.2,0.1-0.5,0.1-0.7c0-0.1,0.1-0.3,0.1-0.4  c0.1-0.3,0.1-0.5,0.2-0.8c0-0.1,0.1-0.2,0.1-0.3c0.1-0.3,0.1-0.5,0.2-0.8c0-0.1,0.1-0.2,0.1-0.3c0.1-0.5,0.3-0.9,0.5-1.3  c0.1-0.2,0.1-0.3,0.2-0.5c0.1-0.2,0.2-0.3,0.2-0.5c0.1-0.2,0.2-0.4,0.3-0.6c0-0.1,0.1-0.1,0.1-0.2c0.1-0.1,0.2-0.2,0.3-0.2  c0.1-0.1,0.2-0.2,0.4-0.3c0.1-0.1,0.3-0.2,0.4-0.3c0.1-0.1,0.2-0.2,0.4-0.2c0.2-0.1,0.3-0.2,0.5-0.3c0.1-0.1,0.3-0.1,0.4-0.2  c0.2-0.1,0.3-0.1,0.5-0.2c0.1-0.1,0.3-0.1,0.4-0.2c0.2-0.1,0.3-0.1,0.5-0.2c0.1,0,0.3-0.1,0.4-0.1c0.2-0.1,0.4-0.1,0.6-0.1  c0.1,0,0.3-0.1,0.4-0.1c0.2,0,0.4-0.1,0.6-0.1c0.1,0,0.2,0,0.3,0c0.3,0,0.7,0,1,0c5.9,0,10.7,4.6,11,10.5l0,0.1c0,0.2,0,0.3,0,0.5  c0,0.1,0,0.3,0,0.4l0,0.1c0,0,0,0,0,0c-0.3,5.9-5.1,10.5-11,10.5c-0.2,0-0.4,0-0.7,0c-0.1,0-0.1,0-0.2,0c-0.1,0-0.3,0-0.4,0  c-0.1,0-0.2,0-0.3,0c-0.1,0-0.3,0-0.4-0.1c-0.1,0-0.2,0-0.3-0.1c-0.1,0-0.2,0-0.4-0.1c-0.1,0-0.2,0-0.3-0.1c-0.1,0-0.2-0.1-0.3-0.1  c-0.1,0-0.2-0.1-0.3-0.1c-0.1,0-0.2-0.1-0.3-0.1c-0.1,0-0.2-0.1-0.3-0.1c-0.1,0-0.2-0.1-0.3-0.1c-0.1,0-0.2-0.1-0.3-0.1  c-0.1,0-0.2-0.1-0.3-0.1c-0.1,0-0.2-0.1-0.3-0.1c-0.1-0.1-0.2-0.1-0.3-0.2c-0.1,0-0.2-0.1-0.3-0.2c-0.1-0.1-0.2-0.1-0.3-0.2  c-0.1-0.1-0.2-0.1-0.2-0.2c-0.1-0.1-0.2-0.1-0.3-0.2c-0.1-0.1-0.2-0.1-0.2-0.2c-0.1-0.1-0.2-0.1-0.3-0.2c-0.1-0.1-0.2-0.1-0.2-0.2  c-0.1-0.1-0.2-0.1-0.2-0.2c-0.1-0.1-0.1-0.1-0.2-0.2c-0.1-0.1-0.2-0.2-0.2-0.2c-0.1-0.1-0.1-0.2-0.2-0.2c-0.1-0.1-0.1-0.2-0.2-0.2  c-0.1-0.1-0.1-0.2-0.2-0.2c0,0-0.1-0.1-0.1-0.1c0-0.1-0.1-0.2-0.1-0.4C-219.1,418.6-219.1,418.4-219.2,418.1z M-183.5,401.5  c0.1,0,0.2,0,0.3,0c0.2,0,0.4,0,0.6,0.1c0.1,0,0.3,0.1,0.4,0.1c0.2,0,0.4,0.1,0.6,0.1c0.1,0,0.3,0.1,0.4,0.1  c0.2,0.1,0.4,0.1,0.5,0.2c0.1,0,0.3,0.1,0.4,0.2c0.2,0.1,0.3,0.1,0.5,0.2c0.1,0.1,0.3,0.1,0.4,0.2c0.2,0.1,0.3,0.2,0.5,0.3  c0.1,0.1,0.3,0.2,0.4,0.2c0.1,0.1,0.3,0.2,0.4,0.3c0.1,0.1,0.2,0.2,0.4,0.3c0.1,0.1,0.2,0.1,0.3,0.2c0,0.1,0.1,0.1,0.1,0.2  c0.1,0.2,0.2,0.4,0.3,0.6c0.1,0.2,0.2,0.3,0.2,0.5c0.1,0.2,0.1,0.4,0.2,0.5c0.2,0.4,0.3,0.9,0.5,1.3c0,0.1,0.1,0.2,0.1,0.3  c0.1,0.3,0.2,0.5,0.2,0.8c0,0.1,0.1,0.2,0.1,0.3c0.1,0.3,0.1,0.5,0.2,0.8c0,0.1,0.1,0.3,0.1,0.4c0,0.2,0.1,0.5,0.1,0.7  c0,0.2,0,0.3,0.1,0.5c0,0.2,0.1,0.4,0.1,0.7c0,0.2,0,0.4,0.1,0.7c0,0.2,0,0.4,0,0.5c0,0.4,0,0.8,0,1.2c0,0.4,0,0.8,0,1.2  c0,0.1,0,0.3,0,0.4c0,0.3,0,0.6-0.1,0.8c0,0.2,0,0.3-0.1,0.5c0,0.3-0.1,0.5-0.1,0.7c0,0.2-0.1,0.3-0.1,0.5c0,0.2-0.1,0.5-0.1,0.7  c0,0.1-0.1,0.2-0.1,0.4c0,0-0.1,0.1-0.1,0.1c-0.1,0.1-0.1,0.2-0.2,0.2c-0.1,0.1-0.1,0.2-0.2,0.2c-0.1,0.1-0.1,0.2-0.2,0.2  c-0.1,0.1-0.2,0.2-0.2,0.2c-0.1,0.1-0.1,0.1-0.2,0.2c-0.1,0.1-0.2,0.2-0.2,0.2c-0.1,0.1-0.2,0.1-0.2,0.2c-0.1,0.1-0.2,0.1-0.3,0.2  c-0.1,0.1-0.2,0.1-0.2,0.2c-0.1,0.1-0.2,0.1-0.3,0.2c-0.1,0.1-0.2,0.1-0.3,0.2c-0.1,0.1-0.2,0.1-0.3,0.2c-0.1,0.1-0.2,0.1-0.3,0.2  c-0.1,0.1-0.2,0.1-0.3,0.2c-0.1,0-0.2,0.1-0.3,0.1c-0.1,0.1-0.2,0.1-0.3,0.1c-0.1,0-0.2,0.1-0.3,0.1c-0.1,0-0.2,0.1-0.3,0.1  c-0.1,0-0.2,0.1-0.3,0.1c-0.1,0-0.2,0.1-0.3,0.1c-0.1,0-0.2,0.1-0.3,0.1c-0.1,0-0.2,0.1-0.3,0.1c-0.1,0-0.2,0.1-0.3,0.1  c-0.1,0-0.2,0.1-0.4,0.1c-0.1,0-0.2,0-0.3,0.1c-0.1,0-0.3,0-0.4,0.1c-0.1,0-0.2,0-0.3,0c-0.1,0-0.3,0-0.4,0c-0.1,0-0.1,0-0.2,0  c-0.2,0-0.4,0-0.7,0c-5.9,0-10.7-4.6-11-10.5l0-0.1c0-0.2,0-0.3,0-0.5c0-0.1,0-0.3,0-0.4l0-0.1c0,0,0,0,0,0  c0.3-5.9,5.1-10.5,11-10.5C-184.2,401.4-183.9,401.4-183.5,401.5z M-205.9,426.5c0.1,0,0.2-0.1,0.3-0.1c0.2-0.1,0.3-0.1,0.5-0.2  c0.1,0,0.2-0.1,0.3-0.1c0.2-0.1,0.3-0.1,0.5-0.2c0.1,0,0.2-0.1,0.2-0.1c0.2-0.1,0.4-0.2,0.7-0.3c0,0,0,0,0.1,0c0,0-0.1,0.1-0.1,0.1  c-0.1,0.1-0.2,0.2-0.2,0.3c-0.2,0.3-0.4,0.5-0.6,0.8c-0.1,0.1-0.2,0.2-0.3,0.4c-0.1,0.2-0.3,0.3-0.4,0.5c-0.5-0.3-0.9-0.5-1.3-0.9  C-206.2,426.6-206,426.5-205.9,426.5z M-195.3,426.1c0.1,0.2,0.2,0.3,0.3,0.5c0.2,0.3,0.4,0.6,0.6,0.9c0.1,0.1,0.2,0.3,0.3,0.4  c0.3,0.4,0.5,0.7,0.8,1c-0.8,0.2-1.5,0.4-2.3,0.4v-3.7C-195.5,425.8-195.4,425.9-195.3,426.1z M-190.2,426.9  c-0.1-0.1-0.2-0.2-0.3-0.3c-0.2-0.3-0.5-0.6-0.7-0.9c-0.1-0.1-0.1-0.1-0.2-0.2c0,0-0.1-0.1-0.1-0.1c0,0,0,0,0,0  c0.2,0.1,0.5,0.2,0.7,0.3c0.1,0,0.1,0,0.2,0.1c0.2,0.1,0.4,0.2,0.6,0.2c0.1,0,0.2,0.1,0.3,0.1c0.2,0.1,0.3,0.1,0.5,0.2  c0.1,0,0.2,0.1,0.3,0.1c0.2,0.1,0.3,0.1,0.5,0.1c-0.4,0.3-0.9,0.6-1.3,0.9C-189.9,427.3-190,427.1-190.2,426.9z M-200.6,427.8  c0.1-0.1,0.1-0.2,0.2-0.3c0.2-0.3,0.5-0.7,0.7-1c0.1-0.1,0.2-0.2,0.2-0.4c0.1-0.2,0.2-0.3,0.3-0.5v3.7c-0.8-0.1-1.6-0.2-2.3-0.4  C-201.2,428.6-200.9,428.2-200.6,427.8z M-189.7,434.8C-189.7,434.8-189.8,434.8-189.7,434.8c-0.4,0.1-0.7,0.2-1,0.3  c-0.1,0-0.2,0-0.2,0.1c-0.3,0.1-0.5,0.2-0.8,0.2c-0.1,0-0.2,0.1-0.3,0.1c-0.2,0.1-0.5,0.1-0.7,0.2c-0.1,0-0.3,0.1-0.4,0.1  c-0.2,0-0.4,0.1-0.6,0.1c-0.1,0-0.3,0-0.4,0.1c-0.2,0-0.4,0.1-0.6,0.1c-0.2,0-0.3,0-0.5,0c-0.1,0-0.2,0-0.3,0V433  c1.8-0.2,3.5-0.6,5.1-1.2c0,0,0,0,0,0c0.3,0.2,0.5,0.5,0.8,0.7c0.2,0.1,0.3,0.3,0.5,0.4c0.3,0.2,0.6,0.4,0.9,0.7  c0.1,0.1,0.3,0.2,0.4,0.3c0,0,0.1,0.1,0.1,0.1C-188.4,434.2-189,434.5-189.7,434.8z M-184.5,431.7c-0.1-0.1-0.3-0.2-0.4-0.2  c-0.3-0.2-0.5-0.3-0.8-0.5c-0.1-0.1-0.3-0.2-0.4-0.3c-0.3-0.2-0.6-0.4-0.8-0.6c0,0,0,0-0.1,0c1.3-0.8,2.5-1.8,3.5-2.9c0,0,0,0,0,0  c0.2,0,0.4,0,0.6,0c0.1,0,0.2,0,0.3,0c0.2,0,0.3,0,0.5-0.1c0.1,0,0.2,0,0.3-0.1c0.2,0,0.3-0.1,0.5-0.1c0.1,0,0.2,0,0.3-0.1  c0.2,0,0.3-0.1,0.5-0.1c0.1,0,0.2-0.1,0.3-0.1c0.2-0.1,0.3-0.1,0.5-0.2c0.1,0,0.2-0.1,0.3-0.1c0.2-0.1,0.5-0.2,0.7-0.3c0,0,0,0,0,0  c-1.5,2.3-3.4,4.3-5.6,5.9C-184.3,431.8-184.4,431.7-184.5,431.7z M-215.4,426.2c0.1,0,0.2,0.1,0.2,0.1c0.2,0.1,0.4,0.1,0.5,0.2  c0.1,0,0.2,0.1,0.3,0.1c0.2,0,0.3,0.1,0.5,0.1c0.1,0,0.2,0.1,0.3,0.1c0.2,0,0.3,0.1,0.5,0.1c0.1,0,0.2,0,0.3,0.1  c0.2,0,0.3,0.1,0.5,0.1c0.1,0,0.2,0,0.3,0c0.2,0,0.4,0,0.6,0.1c0,0,0,0,0,0c1.1,1.1,2.2,2.1,3.5,2.9c0,0,0,0-0.1,0.1  c-0.3,0.2-0.5,0.4-0.8,0.6c-0.1,0.1-0.3,0.2-0.4,0.3c-0.3,0.2-0.5,0.3-0.8,0.5c-0.1,0.1-0.3,0.2-0.4,0.2c-0.1,0-0.2,0.1-0.2,0.1  c-2.2-1.6-4.1-3.6-5.6-5.9C-215.8,426-215.6,426.1-215.4,426.2z M-208.3,448.4c-0.4,1-0.7,1.9-0.9,3c-2-0.2-3.9-0.6-5.8-0.9  c0.5-0.9,1.2-1.8,1.8-2.7C-211.6,448-209.9,448.3-208.3,448.4z M-204.5,448.7c2.1,0.1,4.1,0.2,5.5,0.2v3.1c-2.2,0-4.5-0.2-6.6-0.3  C-205.3,450.7-204.9,449.7-204.5,448.7z M-195.4,452.1v-3.1c1.4,0,3.4-0.1,5.5-0.2c0.4,1,0.8,2,1.1,3  C-190.9,451.9-193.1,452-195.4,452.1z M-186,448.4c1.8-0.2,3.6-0.4,5.3-0.7c0.7,0.8,1.3,1.7,1.8,2.7c-2,0.4-4,0.7-6.2,1  C-185.4,450.4-185.7,449.4-186,448.4z M-221.7,444.7c1.1,0.9,2.7,1.6,4.6,2.1c-0.6,0.9-1.1,1.8-1.6,2.7c-2.2-0.6-4.1-1.3-5.8-2  C-223.6,446.5-222.7,445.6-221.7,444.7z M-226.5,450.6c1.9,0.9,4,1.7,6.5,2.4c-0.6,1.8-1,3.8-1.2,5.8h-7.8  C-228.8,455.8-227.9,453.1-226.5,450.6z M-217.6,458.8c0.2-1.7,0.5-3.4,1.1-4.9c2.1,0.5,4.4,0.8,6.7,1.1c-0.1,0.7-0.1,1.5-0.1,2.3  c0,0.5,0,1,0,1.5H-217.6z M-184.5,458.8c0-0.5,0-1,0-1.5c0-0.8,0-1.5-0.1-2.3c2.5-0.3,4.9-0.7,7.2-1.2c0.6,1.6,0.9,3.3,1.1,5H-184.5  z M-172.6,458.8c-0.2-2-0.6-4-1.2-5.9c2.3-0.6,4.3-1.4,6-2.2c1.4,2.4,2.2,5.2,2.5,8.1H-172.6z"></path></svg>