<svg xmlns="http://www.w3.org/2000/svg" xmlns:xlink="http://www.w3.org/1999/xlink" version="1.1" x="0px" y="0px" viewBox="-247 370.9 100 100" enable-background="new -247 370.9 100 100" xml:space="preserve"><path fill="#000000" d="M-171.8,440.9c-0.1-0.1-0.2-0.1-0.3-0.2c-1.2-0.8-2.5-1.6-3.9-2.2c0,0,0,0-0.1,0c-0.1,0-0.1-0.1-0.2-0.1  c-0.2-0.1-0.4-0.2-0.7-0.3c-0.2-0.1-0.3-0.1-0.5-0.2c-0.2-0.1-0.5-0.2-0.7-0.2c-0.2-0.1-0.3-0.1-0.5-0.2c-0.2-0.1-0.4-0.1-0.6-0.2  c-0.2-0.1-0.4-0.1-0.5-0.2c-0.2-0.1-0.4-0.1-0.6-0.1c-0.2,0-0.4-0.1-0.6-0.1c-0.2,0-0.3-0.1-0.5-0.1c-0.2,0-0.5-0.1-0.7-0.1  c-0.2,0-0.3,0-0.5-0.1c-0.2,0-0.5-0.1-0.7-0.1c-0.2,0-0.4,0-0.6,0c-0.2,0-0.4,0-0.6,0c-0.1,0-0.1,0-0.2,0  c7.9-4.4,13.2-12.9,13.2-22.5c0-14.3-11.6-25.9-25.9-25.9c-14.3,0-25.9,11.6-25.9,25.9c0,9.7,5.3,18.1,13.2,22.5c-0.1,0-0.3,0-0.4,0  c-0.2,0-0.5,0-0.7,0.1c-0.2,0-0.4,0.1-0.7,0.1c-0.2,0-0.4,0-0.6,0.1c-0.2,0-0.5,0.1-0.7,0.1c-0.2,0-0.4,0.1-0.5,0.1  c-0.2,0-0.4,0.1-0.7,0.2c-0.2,0-0.4,0.1-0.6,0.1c-0.2,0.1-0.4,0.1-0.6,0.2c-0.2,0.1-0.4,0.1-0.6,0.2c-0.2,0.1-0.4,0.1-0.6,0.2  c-0.2,0.1-0.4,0.2-0.6,0.2c-0.2,0.1-0.3,0.1-0.5,0.2c-0.2,0.1-0.4,0.2-0.6,0.3c-0.1,0.1-0.2,0.1-0.3,0.1c0,0,0,0-0.1,0  c-1.2,0.6-2.4,1.3-3.6,2c-0.1,0.1-0.2,0.1-0.3,0.2c-6.1,4.4-10.2,11.6-10.2,19.7c0,1,0.8,1.8,1.8,1.8h67.5c1,0,1.8-0.8,1.8-1.8  C-161.6,452.5-165.6,445.3-171.8,440.9z M-219.6,443.2c0.3-0.2,0.7-0.4,1-0.6c4.8,7,12.6,11.1,21.2,11.1c8.5,0,16.5-4.3,21.3-11.2  c0.4,0.2,0.9,0.5,1.3,0.8v15.5h-44.8V443.2z M-213.5,440.6c0,0,0.1,0,0.1,0c0.2-0.1,0.5-0.1,0.8-0.2c0.1,0,0.1,0,0.2,0  c0.2,0,0.5-0.1,0.7-0.1c0.1,0,0.2,0,0.3,0c0.2,0,0.4-0.1,0.7-0.1c0.1,0,0.2,0,0.3,0c0.2,0,0.5,0,0.7,0c0.1,0,0.2,0,0.3,0  c0.3,0,0.6,0,0.9,0h22.8c0.5,0,1,0,1.4,0.1c0.1,0,0.2,0,0.3,0c0.5,0,0.9,0.1,1.4,0.2c0.1,0,0.2,0,0.3,0.1c0.4,0.1,0.8,0.1,1.2,0.2  c0.1,0,0.1,0,0.2,0c0.5,0.1,0.9,0.2,1.3,0.4c0,0,0.1,0,0.1,0c-4.2,5.6-10.8,9.1-17.9,9.1c-7.1,0-13.6-3.3-17.8-9  C-214.6,440.9-214.1,440.8-213.5,440.6z M-207.3,431.4c0-5.6,4.6-10.2,10.2-10.2s10.2,4.6,10.2,10.2c0,0.8-0.1,1.6-0.3,2.3  c-0.1,0-0.2,0.1-0.3,0.1c-0.2,0.1-0.4,0.2-0.6,0.3c-0.2,0.1-0.3,0.2-0.5,0.2c-0.3,0.1-0.6,0.3-1,0.4c0,0-0.1,0-0.1,0.1  c-0.4,0.1-0.8,0.3-1.2,0.4c0,0-0.1,0-0.1,0c-0.4,0.1-0.7,0.2-1.1,0.3c-0.1,0-0.2,0-0.2,0.1c-0.3,0.1-0.7,0.1-1,0.2  c-0.1,0-0.2,0-0.3,0.1c-0.3,0.1-0.6,0.1-1,0.1c-0.1,0-0.2,0-0.3,0c-0.3,0-0.6,0.1-1,0.1c-0.1,0-0.2,0-0.3,0c-0.4,0-0.8,0-1.2,0  c-0.4,0-0.8,0-1.2,0c-0.2,0-0.4,0-0.6,0c-0.2,0-0.4,0-0.6,0c-0.2,0-0.5-0.1-0.7-0.1c-0.1,0-0.3,0-0.4-0.1c-0.3,0-0.5-0.1-0.8-0.1  c-0.1,0-0.2,0-0.3-0.1c-0.3-0.1-0.5-0.1-0.8-0.2c-0.1,0-0.2-0.1-0.3-0.1c-0.3-0.1-0.5-0.1-0.8-0.2c-0.1,0-0.2-0.1-0.3-0.1  c-0.2-0.1-0.5-0.2-0.7-0.3c-0.1,0-0.3-0.1-0.4-0.1c-0.2-0.1-0.4-0.2-0.7-0.3c-0.2-0.1-0.4-0.2-0.6-0.3c-0.1-0.1-0.3-0.1-0.4-0.2  C-207.2,433.1-207.3,432.2-207.3,431.4z M-219.6,413.9c0-12.3,10-22.2,22.2-22.2s22.2,10,22.2,22.2c0,7-3.2,13.2-8.3,17.3  c-0.1-7.5-6.2-13.6-13.8-13.6c-7.6,0-13.8,6.2-13.8,13.8c0,0,0,0.1,0,0.1C-216.2,427.4-219.6,421.1-219.6,413.9z M-223.2,446.2v12.6  h-5.8C-228.6,453.9-226.5,449.5-223.2,446.2z M-171.1,458.8v-12.6c3.2,3.3,5.4,7.7,5.8,12.6H-171.1z"></path><path fill="#000000" d="M-198.9,433.9h3.1c2.7,0,4.9-2.2,4.9-4.9c0-2.7-2.2-4.9-4.9-4.9h-3.1c-2.7,0-4.9,2.2-4.9,4.9  C-203.8,431.7-201.6,433.9-198.9,433.9z M-198.9,427.7h3.1c0.7,0,1.3,0.6,1.3,1.3c0,0.7-0.6,1.3-1.3,1.3h-3.1  c-0.7,0-1.3-0.6-1.3-1.3C-200.2,428.3-199.6,427.7-198.9,427.7z"></path><path fill="#000000" d="M-203.9,417.3c0.3-0.2,0.5-0.4,0.7-0.7c1.8-3.1,1.2-7.1-1.3-9.6c-1.5-1.5-3.5-2.3-5.7-2.3  c-1.4,0-2.7,0.4-3.9,1c-0.3,0.2-0.5,0.4-0.7,0.7c-1.8,3.1-1.2,7.1,1.3,9.6c1.5,1.5,3.5,2.3,5.7,2.3  C-206.5,418.4-205.1,418-203.9,417.3z M-211.9,408.7c0.5-0.2,1.1-0.3,1.7-0.3c1.2,0,2.3,0.5,3.1,1.3c1.3,1.3,1.6,3.2,0.9,4.8  c-0.5,0.2-1.1,0.3-1.7,0.3c-1.2,0-2.3-0.5-3.1-1.3C-212.2,412.2-212.5,410.3-211.9,408.7z"></path><path fill="#000000" d="M-190.5,417.3c1.2,0.7,2.6,1,3.9,1c0,0,0,0,0,0c2.1,0,4.1-0.8,5.7-2.3c2.5-2.5,3.1-6.5,1.3-9.6  c-0.2-0.3-0.4-0.5-0.7-0.7c-1.2-0.7-2.6-1-3.9-1c-2.1,0-4.1,0.8-5.7,2.3c-2.5,2.5-3.1,6.5-1.3,9.6  C-191,416.9-190.8,417.2-190.5,417.3z M-187.3,409.6c0.8-0.8,1.9-1.3,3.1-1.3c0.6,0,1.2,0.1,1.7,0.3c0.7,1.6,0.3,3.5-0.9,4.8  c-0.8,0.8-1.9,1.3-3.1,1.3h0c-0.6,0-1.2-0.1-1.7-0.3C-188.9,412.8-188.6,410.9-187.3,409.6z"></path><circle fill="#000000" cx="-197.4" cy="396.4" r="1.8"></circle><circle fill="#000000" cx="-197.4" cy="401.9" r="1.8"></circle><circle fill="#000000" cx="-197.4" cy="407.4" r="1.8"></circle><circle fill="#000000" cx="-197.4" cy="412.8" r="1.8"></circle></svg>