<svg xmlns="http://www.w3.org/2000/svg" xmlns:xlink="http://www.w3.org/1999/xlink" version="1.1" x="0px" y="0px" viewBox="-247 370.9 100 100" enable-background="new -247 370.9 100 100" xml:space="preserve"><path fill="#000000" d="M-230.9,462.4h67.5c1,0,1.8-0.8,1.8-1.8c0-12.7-9.9-23.1-22.3-24.1c7.7-4.5,12.8-12.8,12.8-22.3  c0-11.5-7.5-21.2-17.9-24.6c1.2-1.4,1.9-3.2,1.9-5.1c0-3.6-2.4-6.7-5.8-7.6c-0.6-0.2-1.3,0-1.7,0.5c-0.5,0.5-0.6,1.1-0.5,1.7  c0.1,0.4,0.1,0.7,0.1,1.1c0,0.7-0.2,1.4-0.5,2c-0.5-0.1-1-0.1-1.5-0.1c-0.5,0-1,0.1-1.4,0.1c-0.3-0.6-0.5-1.3-0.5-2  c0-0.3,0-0.7,0.1-1.1c0.2-0.6,0-1.3-0.5-1.7c-0.5-0.5-1.1-0.6-1.7-0.5c-3.4,0.9-5.8,4-5.8,7.6c0,1.9,0.7,3.7,1.9,5.1c0,0,0,0,0,0.1  c-10.3,3.4-17.8,13.1-17.8,24.6c0,9.5,5.1,17.8,12.8,22.3c-12.6,0.8-22.7,11.3-22.7,24.1C-232.7,461.6-231.9,462.4-230.9,462.4z   M-193.9,440l-3.3,8.1l-3.3-8.1H-193.9z M-165.3,458.8h-32.3l7.6-18.7h4.2C-175.1,440-166.2,448.3-165.3,458.8z M-191.6,381.9  c0.6,0.7,0.9,1.6,0.9,2.6c0,0.2,0,0.4,0,0.6c-0.4-0.5-0.9-1-1.5-1.4C-191.9,383.1-191.7,382.5-191.6,381.9z M-195.8,385.8  c0.1,0.1,0.2,0.1,0.3,0.1c1.2,0.5,2.1,1.5,2.5,2.6c-1.3-0.2-2.6-0.3-3.9-0.3c-1.4,0-2.8,0.1-4.2,0.3c0.6-1.7,2.2-3,4.2-3  C-196.6,385.7-196.2,385.7-195.8,385.8z M-202.4,381.9c0.1,0.6,0.3,1.1,0.6,1.6c-0.5,0.4-1,0.8-1.4,1.3c0-0.1,0-0.2,0-0.4  C-203.3,383.5-202.9,382.6-202.4,381.9z M-219.2,414.2c0-12.3,10-22.2,22.2-22.2c12.3,0,22.2,10,22.2,22.2c0,12.3-10,22.2-22.2,22.2  C-209.2,436.4-219.2,426.4-219.2,414.2z M-208.6,440h4.2l5.3,12.9l-2.4,5.8H-229C-228.1,448.3-219.3,440-208.6,440z"></path><path fill="#000000" d="M-177.2,411.8c0-4.4-3.6-8-8-8h-23.4c-4.4,0-8,3.6-8,8c0,4.4,3.6,8,8,8h23.4  C-180.8,419.8-177.2,416.2-177.2,411.8z M-213,411.8c0-2.4,2-4.4,4.4-4.4h23.4c2.4,0,4.4,2,4.4,4.4c0,2.4-2,4.4-4.4,4.4h-23.4  C-211,416.2-213,414.2-213,411.8z"></path><path fill="#000000" d="M-187.4,447.7l1.5,2.9l-1.5,2.9c-0.4,0.7-0.2,1.6,0.3,2.1c0.6,0.6,1.4,0.7,2.1,0.3l2.9-1.5l2.9,1.5  c0.3,0.1,0.5,0.2,0.8,0.2c0.5,0,0.9-0.2,1.3-0.5c0.6-0.6,0.7-1.4,0.3-2.1l-1.5-2.9l1.5-2.9c0.4-0.7,0.2-1.6-0.3-2.1  c-0.6-0.6-1.4-0.7-2.1-0.3l-2.9,1.5l-2.9-1.5c-0.7-0.4-1.6-0.2-2.1,0.3C-187.6,446.1-187.7,447-187.4,447.7z"></path><circle fill="#000000" cx="-185.2" cy="411.8" r="1.8"></circle><circle fill="#000000" cx="-208.6" cy="411.8" r="1.8"></circle></svg>