<svg xmlns="http://www.w3.org/2000/svg" xmlns:xlink="http://www.w3.org/1999/xlink" version="1.1" x="0px" y="0px" viewBox="-247 370.9 100 100" enable-background="new -247 370.9 100 100" xml:space="preserve"><path fill="#000000" d="M-195.5,428.5l2.6-5.6c0,0,0,0,0,0c0-0.1,0-0.1,0.1-0.2c0-0.1,0-0.1,0-0.2c0-0.1,0-0.1,0-0.2  c0-0.1,0-0.1,0-0.2c0,0,0,0,0,0c0,0,0-0.1,0-0.1c0-0.1,0-0.1,0-0.2c0-0.1,0-0.1,0-0.2c0-0.1,0-0.1-0.1-0.2c0-0.1,0-0.1-0.1-0.2  c0-0.1-0.1-0.1-0.1-0.2c0,0-0.1-0.1-0.1-0.1c0,0-0.1-0.1-0.1-0.1c0,0-0.1-0.1-0.1-0.1c0,0-0.1-0.1-0.1-0.1c-0.1,0-0.1-0.1-0.2-0.1  c0,0-0.1,0-0.1-0.1c0,0,0,0,0,0c-0.1,0-0.1,0-0.2-0.1c-0.1,0-0.1,0-0.2,0c0,0-0.1,0-0.2,0c-0.1,0-0.1,0-0.2,0c0,0,0,0,0,0h-4.6  l3.6-7.6c0.4-0.9,0-2-0.9-2.4c-0.9-0.4-2,0-2.4,0.9l-4.8,10.1c0,0,0,0,0,0c0,0.1,0,0.1-0.1,0.2c0,0.1,0,0.1,0,0.2c0,0.1,0,0.1,0,0.2  c0,0.1,0,0.1,0,0.2c0,0,0,0,0,0c0,0,0,0.1,0,0.1c0,0.1,0,0.1,0,0.2c0,0.1,0,0.1,0,0.2c0,0.1,0,0.1,0.1,0.2c0,0.1,0,0.1,0.1,0.2  c0,0.1,0.1,0.1,0.1,0.2c0,0,0.1,0.1,0.1,0.1c0,0,0.1,0.1,0.1,0.1c0,0,0.1,0.1,0.1,0.1c0,0,0.1,0.1,0.1,0.1c0.1,0,0.1,0.1,0.2,0.1  c0,0,0.1,0,0.1,0.1c0,0,0,0,0,0c0.1,0,0.2,0.1,0.3,0.1c0,0,0.1,0,0.1,0c0.1,0,0.2,0,0.3,0c0,0,0,0,0.1,0c0,0,0,0,0,0h4.6l-1.4,3  c-0.4,0.9,0,2,0.9,2.4c0.3,0.1,0.5,0.2,0.8,0.2C-196.5,429.5-195.8,429.2-195.5,428.5z"></path><path fill="#000000" d="M-188.6,413.9c0.5,0,0.9-0.2,1.3-0.5c1.1-1.1,2.9-1.1,4,0c0.7,0.7,1.9,0.7,2.6,0c0.7-0.7,0.7-1.9,0-2.6  c-2.5-2.5-6.6-2.5-9.1,0c-0.7,0.7-0.7,1.9,0,2.6C-189.6,413.8-189.1,413.9-188.6,413.9z"></path><path fill="#000000" d="M-225.9,443.9c-4.4,4.5-6.9,10.5-6.9,16.9c0,1,0.8,1.8,1.8,1.8h67.5c1,0,1.8-0.8,1.8-1.8  c0-6.3-2.4-12.3-6.9-16.9c-4.2-4.3-9.8-6.8-15.7-7.2c2.6-1.5,4.8-3.4,6.8-5.7c0.6,0.1,1.3,0.1,1.9,0.1c7.6,0,13.8-6.2,13.8-13.8  c0-4.3-2-8.3-5.3-10.9c0-0.4,0-0.8,0-1.1c0-10.9-8.9-19.8-19.8-19.8c-3,0-5.9,0.7-8.5,1.9c-1.3-4.8-5.6-8.3-10.8-8.3  c-6.2,0-11.2,5-11.2,11.2c0,1.5,0.3,2.9,0.8,4.2c0,0.1,0,0.2,0,0.2c0,0.6-0.5,1.1-1.1,1.1c-0.2,0-0.4-0.1-0.6-0.2  c-0.3-0.5-0.4-1-0.5-1.5c0-0.1,0-0.2,0-0.2c0-0.1,0-0.2,0-0.3c0-0.2,0-0.4,0-0.6c0.2-0.6,0-1.2-0.5-1.7c0,0,0,0-0.1-0.1c0,0,0,0,0,0  c0,0,0,0,0,0c-0.2-0.2-0.6-0.4-0.9-0.5c-0.8-0.1-1.5,0.2-1.9,0.9c-1.8,2-2.7,4.6-2.7,7.3c0,1.1,0.2,2.2,0.5,3.2  c-4.7,1.3-8.1,5.6-8.1,10.7c0,4.6,2.8,8.6,6.9,10.3c-0.4,0.9-0.6,1.9-0.6,2.9c0,4.3,3.5,7.8,7.8,7.8c1.2,0,2.3-0.3,3.4-0.8  c1.4,1.3,3,2.5,4.7,3.5C-216.1,437.1-221.7,439.6-225.9,443.9z M-165.3,459H-229c0.9-10.4,9.3-18.4,19.9-18.7c0,0,0.1,0,0.1,0h23.7  c0,0,0.1,0,0.1,0C-174.6,440.6-166.2,448.6-165.3,459z M-165.3,417.4c0,5.4-4.3,9.9-9.6,10.2c1.7-2.9,2.9-6.1,3.4-9.5  c1.8-2.1,3.1-4.6,3.9-7.3C-166.2,412.6-165.3,414.9-165.3,417.4z M-170.6,405.4c0,1.9-0.3,3.8-1,5.6c-0.6-4.3-2.2-8.3-4.7-11.7  c0-0.1-0.1-0.2-0.2-0.3c-0.1-0.1-0.2-0.2-0.2-0.3c-3.3-4.4-8.1-7.6-13.5-9.2c1.1-0.2,2.2-0.4,3.4-0.4  C-177.9,389.2-170.6,396.4-170.6,405.4z M-180.6,399.6c-1.4,0.6-2.8,1-4.3,1c-5,0-9.1-3.6-10-8.3  C-189.3,392.8-184.2,395.5-180.6,399.6z M-206.1,382.8c0.3,0,0.6,0,0.9,0.1c-3.2,1-5.6,4-5.6,7.5l0,0.1c0,0.2,0.1,1.3,0.4,2.2  c0,0.1,0.1,0.7,0.1,1.1c0,2.1-1.6,3.9-3.6,4.2c0.7-0.8,1.1-1.9,1.1-3c0-0.4-0.1-0.9-0.2-1.3l-0.1-0.2c-0.4-0.9-0.6-1.9-0.6-2.9  C-213.6,386.2-210.3,382.8-206.1,382.8z M-213.5,406.6c-4.2,0-7.6-3.4-7.6-7.6c0-0.3,0-0.6,0.1-1c0.1,0.1,0.1,0.1,0.2,0.2  c1.4,2,3.7,3.3,6.4,3.3c3.7,0,6.8-2.6,7.6-6.1c0.6,1.1,0.9,2.3,0.9,3.6C-206,403.2-209.4,406.6-213.5,406.6z M-228.8,412.9  c0-3.7,2.6-6.8,6.2-7.4c1.9,2.6,4.9,4.4,8.4,4.6c0.4,0.9,0.5,1.8,0.5,2.8c0,4.2-3.4,7.6-7.6,7.6  C-225.4,420.5-228.8,417.1-228.8,412.9z M-222.4,426.2c0-0.7,0.2-1.4,0.5-2.1c0.2,0,0.5,0,0.7,0c0,0,0.1,0,0.1,0  c0.9,2.3,2.1,4.3,3.6,6.2c-0.2,0-0.5,0.1-0.7,0.1C-220.6,430.4-222.4,428.5-222.4,426.2z M-217.5,423.5c4.3-1.5,7.4-5.7,7.4-10.5  c0-1.1-0.2-2.2-0.5-3.2c4.7-1.3,8.1-5.6,8.1-10.7c0-3.7-1.8-7.1-4.8-9.2c0.2-2.1,2-3.7,4.2-3.7c2.3,0,4.2,1.9,4.2,4.2  c0,7.6,6.2,13.8,13.8,13.8c2.3,0,4.5-0.6,6.6-1.7c2.2,3.4,3.5,7.5,3.5,11.9c0,12.3-10,22.2-22.2,22.2  C-206,436.6-213.9,431.4-217.5,423.5z"></path><path fill="#000000" d="M-197.2,448.7c-1,0-1.8,0.8-1.8,1.8c0,1,0.8,1.8,1.8,1.8c1,0,1.8-0.8,1.8-1.8  C-195.4,449.5-196.2,448.7-197.2,448.7z"></path><path fill="#000000" d="M-185.9,442.9c-0.9-0.5-2-0.2-2.5,0.7c-0.5,0.9-0.2,2,0.7,2.5c0.3,0.2,0.6,0.2,0.9,0.2  c0.6,0,1.2-0.3,1.6-0.9C-184.7,444.5-185,443.4-185.9,442.9z"></path><path fill="#000000" d="M-192.1,447.3c-0.9,0.5-1.2,1.6-0.7,2.5c0.3,0.6,0.9,0.9,1.6,0.9c0.3,0,0.6-0.1,0.9-0.2  c0.9-0.5,1.2-1.6,0.7-2.5C-190.1,447.1-191.2,446.8-192.1,447.3z"></path><path fill="#000000" d="M-208.5,442.9c-0.9,0.5-1.2,1.6-0.7,2.5c0.3,0.6,0.9,0.9,1.6,0.9c0.3,0,0.6-0.1,0.9-0.2  c0.9-0.5,1.2-1.6,0.7-2.5C-206.5,442.7-207.6,442.4-208.5,442.9z"></path><path fill="#000000" d="M-202.3,447.3c-0.9-0.5-2-0.2-2.5,0.7c-0.5,0.9-0.2,2,0.7,2.5c0.3,0.2,0.6,0.2,0.9,0.2  c0.6,0,1.2-0.3,1.6-0.9C-201.1,448.9-201.4,447.8-202.3,447.3z"></path><circle fill="#000000" cx="-188.3" cy="426.2" r="1.8"></circle></svg>