<svg xmlns="http://www.w3.org/2000/svg" xmlns:xlink="http://www.w3.org/1999/xlink" version="1.1" x="0px" y="0px" viewBox="-247 370.9 100 100" enable-background="new -247 370.9 100 100" xml:space="preserve"><path fill="#000000" d="M-232.8,460.6c0,1,0.8,1.8,1.8,1.8h67.6c1,0,1.8-0.8,1.8-1.8c0-12.9-10.2-23.5-23-24.2  c1.1-0.6,2.1-1.3,3.1-2.1c0.3,0.6,0.9,1.1,1.6,1.1c0,0,0,0,0,0c0,0,0,0,0,0c0,0,0,0,0,0c7.6,0,13.7-6.2,13.7-13.8c0,0,0-0.1,0-0.1  c0-0.1,0-0.1,0-0.2c0-0.1,0-0.1,0-0.2c0-0.1,0-0.1-0.1-0.2c0-0.1-0.1-0.1-0.1-0.2c0,0,0-0.1,0-0.1l-8.4-14.5  c1.8-1.6,4.2-2.6,6.8-2.6c1,0,1.8-0.8,1.8-1.8c0-1-0.8-1.8-1.8-1.8c-3.9,0-7.5,1.7-10,4.3c0,0,0,0,0,0c0,0-0.1,0.1-0.1,0.1v-4  c0-0.1,0-0.3,0-0.4c0.2-5.4,4.7-9.7,10.1-9.7c1,0,1.8-0.8,1.8-1.8c0-1-0.8-1.8-1.8-1.8c-4.9,0-9.1,2.5-11.6,6.4  c-0.9-2.2-2.3-4.3-4-6.1v-6.4c0-1.9,1.6-3.5,3.5-3.5c1,0,1.8-0.8,1.8-1.8c0-1-0.8-1.8-1.8-1.8c-3.4,0-6.2,2.3-6.9,5.5  c-1.8,0.4-3.4,1.6-4.4,3.1c-1.3-0.4-2.7-0.7-4.1-0.8c0,0,0-0.1,0-0.1c0-1-0.8-1.8-1.8-1.8s-1.8,0.8-1.8,1.8c0,0,0,0.1,0,0.1  c-1.4,0.1-2.8,0.4-4.1,0.9c-1-1.6-2.5-2.7-4.4-3.1c-0.7-3.1-3.6-5.5-6.9-5.5c-1,0-1.8,0.8-1.8,1.8c0,1,0.8,1.8,1.8,1.8  c1.9,0,3.5,1.6,3.5,3.5v6.6c-1.6,1.7-2.9,3.7-3.8,5.9c-2.4-3.9-6.7-6.4-11.6-6.4c-1,0-1.8,0.8-1.8,1.8v13.4c0,1,0.8,1.8,1.8,1.8  c2.6,0,4.9,1,6.7,2.6l-8.3,14.6c0,0,0,0.1,0,0.1c0,0.1-0.1,0.1-0.1,0.2c0,0.1,0,0.1-0.1,0.2c0,0.1,0,0.1,0,0.2c0,0.1,0,0.1,0,0.2  c0,0,0,0.1,0,0.1c0,7.6,6.2,13.8,13.8,13.8c0.7,0,1.2-0.4,1.6-0.9c0.9,0.7,1.9,1.3,2.9,1.9C-222.7,437.1-232.8,447.7-232.8,460.6z   M-197.6,448.1l-3.3-8.1h6.6L-197.6,448.1z M-208.6,440h3.9l5.2,12.9l-2.4,5.9h-27.2C-228.2,448.3-219.3,440-208.6,440z   M-165.3,458.7H-198l7.6-18.7h4.6C-175,440-166.2,448.3-165.3,458.7z M-197.3,436.1c-5.8,0-11.2-2.2-15.3-6.1v-16.7h5.7  c1,0,1.8-0.8,1.8-1.8c0-1-0.8-1.8-1.8-1.8h-5.7v-7.5h31.1v7.5h-5.7c-1,0-1.8,0.8-1.8,1.8c0,1,0.8,1.8,1.8,1.8h5.7c0,0.2,0,0.3,0,0.5  c0,0.1,0,0.2,0,0.3v15.6C-185.8,433.8-191.3,436.1-197.3,436.1z M-206.5,398.6h-5.9c0.2-2.2,1-4.3,2.1-6.2  C-209.6,394.8-208.3,396.9-206.5,398.6z M-200.7,395.1c0-1.9,1.6-3.5,3.5-3.5c1.9,0,3.5,1.6,3.5,3.5c0,1.8-1.4,3.3-3.1,3.5  c-0.1,0-0.2,0-0.4,0c-0.1,0-0.2,0-0.4,0C-199.3,398.4-200.7,396.9-200.7,395.1z M-177.9,431.6v-18.4c0.1-1.3,0.4-2.6,1-3.8l7.3,12.7  C-169.9,426.8-173.4,430.7-177.9,431.6z M-181.7,398.6h-6.2c1.9-1.7,3.3-4,4-6.5C-182.7,394-181.9,396.2-181.7,398.6z M-187.1,382.9  v5.6c0,2.1-0.6,4-1.7,5.6v-8.1C-188.7,384.6-188.1,383.5-187.1,382.9z M-197.2,384.8c1.7,0,3.3,0.3,4.8,0.8c0,0.1,0,0.2,0,0.3v4  c-1.3-1.2-3-1.9-4.8-1.9c-1.9,0-3.6,0.7-4.8,1.9v-4c0-0.1,0-0.2,0-0.3C-200.5,385-198.8,384.8-197.2,384.8z M-205.7,385.8v8.1  c-1.1-1.6-1.7-3.5-1.7-5.6v-5.6C-206.3,383.5-205.7,384.6-205.7,385.8z M-216.2,400.4v4.1c-2.1-2.3-5-3.9-8.3-4.3v-9.7  C-219.8,391.3-216.2,395.4-216.2,400.4z M-224.5,422.1l7.3-12.8c0.7,1.3,1,2.8,1,4.4v17.9C-220.8,430.8-224.3,426.8-224.5,422.1z"></path><path fill="#000000" d="M-192.8,421.5c0-0.1,0-0.1,0-0.2c0-0.1,0-0.1,0-0.2c0-0.1,0-0.1-0.1-0.2c0-0.1,0-0.1-0.1-0.2  c0-0.1-0.1-0.1-0.1-0.2c0,0-0.1-0.1-0.1-0.1c0,0-0.1-0.1-0.1-0.1c0,0-0.1-0.1-0.1-0.1c0,0-0.1-0.1-0.1-0.1c-0.1,0-0.1-0.1-0.2-0.1  c0,0-0.1,0-0.1-0.1c0,0,0,0,0,0c-0.1,0-0.1,0-0.2-0.1c-0.1,0-0.1,0-0.2,0c0,0-0.1,0-0.2,0c-0.1,0-0.1,0-0.2,0c0,0,0,0,0,0h-4.6  l3.6-7.6c0.4-0.9,0-2-0.9-2.4c-0.9-0.4-2,0-2.4,0.9l-4.8,10.2c0,0,0,0,0,0c0,0.1,0,0.1-0.1,0.2c0,0.1,0,0.1,0,0.2c0,0.1,0,0.1,0,0.2  c0,0.1,0,0.1,0,0.2c0,0,0,0,0,0c0,0,0,0.1,0,0.1c0,0.1,0,0.1,0,0.2c0,0.1,0,0.1,0,0.2c0,0.1,0,0.1,0.1,0.2c0,0.1,0,0.1,0.1,0.2  c0,0.1,0.1,0.1,0.1,0.2c0,0,0.1,0.1,0.1,0.1c0,0,0.1,0.1,0.1,0.1c0,0,0.1,0.1,0.1,0.1c0,0,0.1,0.1,0.1,0.1c0.1,0,0.1,0.1,0.2,0.1  c0,0,0.1,0,0.1,0.1c0,0,0,0,0,0c0.1,0,0.2,0.1,0.3,0.1c0,0,0.1,0,0.1,0c0.1,0,0.2,0,0.3,0c0,0,0,0,0.1,0c0,0,0,0,0,0h4.6l-1.4,3  c-0.4,0.9,0,2,0.9,2.4c0.3,0.1,0.5,0.2,0.8,0.2c0.7,0,1.3-0.4,1.6-1l2.7-5.6c0,0,0,0,0,0c0-0.1,0-0.1,0.1-0.2c0-0.1,0-0.1,0-0.2  c0-0.1,0-0.1,0-0.2c0-0.1,0-0.1,0-0.2c0,0,0,0,0,0C-192.8,421.6-192.8,421.6-192.8,421.5z"></path></svg>