<svg xmlns="http://www.w3.org/2000/svg" xmlns:xlink="http://www.w3.org/1999/xlink" version="1.1" x="0px" y="0px" viewBox="-247 370.9 100 100" enable-background="new -247 370.9 100 100" xml:space="preserve"><path fill="#000000" d="M-230.7,462.6h67.5c1,0,1.8-0.8,1.8-1.8c0-12.8-10.1-23.4-22.7-24.1c7.8-4.5,13-12.8,13-22.4  c0-5.7-1.9-11.3-5.4-15.8c0.5-1,0.7-2,0.6-3.2c-0.1-1.5-0.8-2.8-2-3.8c0,0,0,0-0.1-0.1c-0.8-0.6-1.5-1.2-2.3-1.8  c-0.3-9-7.7-16.3-16.8-16.3c-9.1,0-16.5,7.3-16.8,16.3c-0.8,0.5-1.6,1.1-2.3,1.8c0,0,0,0,0,0c-1.2,1-1.9,2.4-2,3.9  c-0.1,1.1,0.1,2.2,0.6,3.2c-3.5,4.5-5.3,10-5.3,15.7c0,9.6,5.3,18,13,22.4c-12.7,0.7-22.7,11.3-22.7,24.1  C-232.5,461.8-231.7,462.6-230.7,462.6z M-183.4,459v-6.5h6.5v6.5H-183.4z M-182.9,397.5C-182.9,397.5-182.9,397.5-182.9,397.5  c-8.2-6.9-20-6.9-28.2,0c0,0,0,0,0,0c-0.9,0.7-2.2,0.6-2.9-0.3c-0.4-0.4-0.5-1-0.5-1.5c0-0.6,0.3-1.1,0.7-1.4c0,0,0,0,0,0  c9.7-8.2,23.8-8.2,33.6,0c0,0,0,0,0,0c0.4,0.4,0.7,0.9,0.7,1.4c0,0.6-0.1,1.1-0.5,1.5C-180.7,398.1-182,398.2-182.9,397.5z   M-197,377c6.3,0,11.6,4.5,12.9,10.4c-8.1-3.9-17.6-3.9-25.8,0C-208.6,381.5-203.3,377-197,377z M-219.2,414.3  c0-4.8,1.5-9.4,4.4-13.2c0.8,0.3,1.6,0.5,2.4,0.5c1.3,0,2.6-0.4,3.7-1.3c0,0,0,0,0,0c6.8-5.7,16.7-5.7,23.5,0c0,0,0,0,0,0  c1.1,0.9,2.4,1.3,3.7,1.3c0.8,0,1.7-0.2,2.4-0.5c2.8,3.8,4.4,8.5,4.4,13.2c0,12.3-10,22.2-22.2,22.2  C-209.2,436.5-219.2,426.5-219.2,414.3z M-208.4,440.3h22.8c10.7,0,19.5,8.2,20.4,18.7h-8.1v-8.3c0-1-0.8-1.8-1.8-1.8h-10.1  c-1,0-1.8,0.8-1.8,1.8v8.3h-41.8C-227.9,448.5-219.1,440.3-208.4,440.3z"></path><path fill="#000000" d="M-203.4,422.2c0,0.1,0,0.1,0,0.2c0,0.1,0,0.1,0,0.2c0,0.1,0,0.1,0.1,0.2c0,0.1,0,0.1,0.1,0.2  c0,0.1,0.1,0.1,0.1,0.2c0,0,0.1,0.1,0.1,0.1c0,0,0.1,0.1,0.1,0.1c0,0,0.1,0.1,0.1,0.1c0,0,0.1,0.1,0.1,0.1c0.1,0,0.1,0.1,0.2,0.1  c0,0,0.1,0,0.1,0.1c0,0,0,0,0,0c0.1,0,0.2,0.1,0.3,0.1c0,0,0.1,0,0.1,0c0.1,0,0.2,0,0.3,0c0,0,0,0,0.1,0c0,0,0,0,0,0h7.5  c1,0,1.8-0.8,1.8-1.8s-0.8-1.8-1.8-1.8h-4.6l3.6-7.6c0.4-0.9,0-2-0.9-2.4c-0.9-0.4-2,0-2.4,0.9l-4.8,10.1c0,0,0,0,0,0  c0,0.1,0,0.1-0.1,0.2c0,0.1,0,0.1,0,0.2c0,0.1,0,0.1,0,0.2c0,0.1,0,0.1,0,0.2c0,0,0,0,0,0C-203.4,422.1-203.4,422.1-203.4,422.2z"></path><path fill="#000000" d="M-193.4,430.1c1.7,0,3.2-0.6,4.4-1.8c0.7-0.7,0.7-1.9,0-2.6c-0.7-0.7-1.9-0.7-2.6,0  c-0.5,0.5-1.1,0.8-1.8,0.8c-0.7,0-1.3-0.3-1.8-0.8c0,0,0,0,0,0c-0.2-0.2-0.5-0.4-0.8-0.5c0,0-0.1,0-0.1,0c0,0,0,0-0.1,0  c-0.4-0.1-0.9,0-1.3,0.3c-0.1,0.1-0.2,0.1-0.3,0.2c-0.5,0.5-1.1,0.8-1.8,0.8c-0.7,0-1.3-0.3-1.8-0.8c-0.7-0.7-1.9-0.7-2.6,0  c-0.7,0.7-0.7,1.9,0,2.6c1.2,1.2,2.7,1.8,4.4,1.8c1.1,0,2.2-0.3,3.1-0.8C-195.6,429.8-194.5,430.1-193.4,430.1z"></path><circle fill="#000000" cx="-197" cy="445.9" r="1.8"></circle><circle fill="#000000" cx="-185" cy="423.4" r="1.8"></circle><circle fill="#000000" cx="-208.6" cy="411.9" r="1.8"></circle><circle fill="#000000" cx="-197" cy="453.4" r="1.8"></circle><path fill="#000000" d="M-185,417.4c3,0,5.4-2.4,5.4-5.4c0-3-2.4-5.4-5.4-5.4c-3,0-5.4,2.4-5.4,5.4  C-190.4,414.9-188,417.4-185,417.4z M-185,410.1c1,0,1.8,0.8,1.8,1.8c0,1-0.8,1.8-1.8,1.8c-1,0-1.8-0.8-1.8-1.8  C-186.8,410.9-186,410.1-185,410.1z"></path></svg>