<svg xmlns="http://www.w3.org/2000/svg" xmlns:xlink="http://www.w3.org/1999/xlink" version="1.1" x="0px" y="0px" viewBox="-247 370.9 100 100" enable-background="new -247 370.9 100 100" xml:space="preserve"><path fill="#000000" d="M-184.5,436.7c7.9-4.4,13.2-12.9,13.2-22.5c0-6.1-2.1-11.7-5.7-16.1c1.7-2,1.4-5-0.6-6.6  c-1.8-1.5-4.4-1.4-6.1,0.1c0.5-2.2-0.8-4.6-3-5.4c-2.2-0.8-4.7,0.2-5.8,2.2c-0.3-2.3-2.3-4-4.7-4c-2.4,0-4.3,1.7-4.7,4  c-1.1-2-3.5-3-5.8-2.2c-2.2,0.8-3.5,3.1-3,5.4c-1.7-1.5-4.3-1.6-6.1-0.1c-2,1.7-2.3,4.6-0.6,6.6c-3.5,4.4-5.7,10-5.7,16.1  c0,9.7,5.3,18.1,13.2,22.5c-12.7,0.7-22.7,11.3-22.7,24.1c0,1,0.8,1.8,1.8,1.8h28.5l3.6,4.5c0,0,0,0,0,0c0.1,0.1,0.2,0.2,0.3,0.3  c0,0,0,0,0,0c0,0,0,0,0,0c0.1,0.1,0.2,0.1,0.3,0.2c0,0,0.1,0,0.1,0c0.1,0,0.2,0.1,0.3,0.1c0,0,0.1,0,0.1,0c0.1,0,0.2,0,0.4,0  c0,0,0,0,0,0c0,0,0,0,0,0c0.1,0,0.2,0,0.4,0c0,0,0.1,0,0.1,0c0.1,0,0.2-0.1,0.3-0.1c0,0,0.1,0,0.1,0c0.1,0,0.2-0.1,0.3-0.2  c0,0,0,0,0,0c0,0,0,0,0,0c0.1-0.1,0.2-0.2,0.3-0.3c0,0,0,0,0,0l3.6-4.5h28.9c1,0,1.8-0.8,1.8-1.8  C-161.4,447.9-171.7,437.3-184.5,436.7z M-165.1,459h-8.1v-8.3c0-1-0.8-1.8-1.8-1.8h-10.1c-1,0-1.8,0.8-1.8,1.8v8.3h-4.7l-3.6-10.4  l6.7-8.3h3C-174.9,440.3-166,448.6-165.1,459z M-197.2,463.1l-2.2-2.7l2.2-6.3l2.2,6.3L-197.2,463.1z M-193.2,440.3l-4,5l-4-5  H-193.2z M-219.4,414.2c0-12.3,10-22.2,22.2-22.2s22.2,10,22.2,22.2s-10,22.2-22.2,22.2S-219.4,426.4-219.4,414.2z M-208.4,440.3  h2.6l6.7,8.3l-3.6,10.4h-26.2C-227.9,448.6-219.1,440.3-208.4,440.3z M-183.4,459v-6.5h6.5v6.5H-183.4z"></path><path fill="#000000" d="M-195.3,428.3l2.6-5.6c0,0,0,0,0,0c0-0.1,0-0.1,0.1-0.2c0-0.1,0-0.1,0-0.2c0-0.1,0-0.1,0-0.2  c0-0.1,0-0.1,0-0.2c0,0,0,0,0,0c0,0,0-0.1,0-0.1c0-0.1,0-0.1,0-0.2c0-0.1,0-0.1,0-0.2c0-0.1,0-0.1-0.1-0.2c0-0.1,0-0.1-0.1-0.2  c0-0.1-0.1-0.1-0.1-0.2c0,0-0.1-0.1-0.1-0.1c0,0-0.1-0.1-0.1-0.1c0,0-0.1-0.1-0.1-0.1c0,0-0.1-0.1-0.1-0.1c-0.1,0-0.1-0.1-0.2-0.1  c0,0-0.1,0-0.1-0.1c0,0,0,0,0,0c-0.1,0-0.1,0-0.2-0.1c-0.1,0-0.1,0-0.2-0.1c0,0-0.1,0-0.1,0c-0.1,0-0.1,0-0.2,0c0,0,0,0,0,0h-4.6  l3.6-7.6c0.4-0.9,0-2-0.9-2.4c-0.9-0.4-2,0-2.4,0.9l-4.8,10.1c0,0,0,0,0,0c0,0.1,0,0.1-0.1,0.2c0,0.1,0,0.1,0,0.2c0,0.1,0,0.1,0,0.2  c0,0.1,0,0.1,0,0.2c0,0,0,0,0,0c0,0,0,0.1,0,0.1c0,0.1,0,0.1,0,0.2c0,0.1,0,0.1,0,0.2c0,0.1,0,0.1,0.1,0.2c0,0.1,0,0.1,0.1,0.2  c0,0.1,0.1,0.1,0.1,0.2c0,0,0.1,0.1,0.1,0.1c0,0,0.1,0.1,0.1,0.1c0,0,0.1,0.1,0.1,0.1c0,0,0.1,0.1,0.1,0.1c0.1,0,0.1,0.1,0.2,0.1  c0,0,0.1,0,0.1,0.1c0,0,0,0,0,0c0.1,0,0.2,0.1,0.3,0.1c0,0,0.1,0,0.1,0c0.1,0,0.2,0,0.3,0c0,0,0,0,0.1,0c0,0,0,0,0,0h4.6l-1.4,3  c-0.4,0.9,0,2,0.9,2.4c0.3,0.1,0.5,0.2,0.8,0.2C-196.3,429.4-195.7,429-195.3,428.3z"></path><path fill="#000000" d="M-213.4,412c-0.7,0.7-0.7,1.9,0,2.6c0.7,0.7,1.9,0.7,2.6,0c1.1-1.1,2.9-1.1,4,0c0.4,0.4,0.8,0.5,1.3,0.5  s0.9-0.2,1.3-0.5c0.7-0.7,0.7-1.9,0-2.6C-206.8,409.5-210.9,409.5-213.4,412z"></path><path fill="#000000" d="M-188.7,415.1c0.5,0,0.9-0.2,1.3-0.5c1.1-1.1,2.9-1.1,4,0c0.7,0.7,1.9,0.7,2.6,0c0.7-0.7,0.7-1.9,0-2.6  c-2.5-2.5-6.6-2.5-9.1,0c-0.7,0.7-0.7,1.9,0,2.6C-189.6,415-189.2,415.1-188.7,415.1z"></path></svg>