<svg xmlns="http://www.w3.org/2000/svg" xmlns:xlink="http://www.w3.org/1999/xlink" version="1.1" x="0px" y="0px" viewBox="-247 370.9 100 100" enable-background="new -247 370.9 100 100" xml:space="preserve"><path fill="#000000" d="M-195.2,428.8l2.6-5.6c0,0,0,0,0,0c0-0.1,0-0.1,0.1-0.2c0-0.1,0-0.1,0-0.2c0-0.1,0-0.1,0-0.2  c0-0.1,0-0.1,0-0.2c0,0,0,0,0,0c0,0,0-0.1,0-0.1c0-0.1,0-0.1,0-0.2c0-0.1,0-0.1,0-0.2c0-0.1,0-0.1-0.1-0.2c0-0.1,0-0.1-0.1-0.2  c0-0.1-0.1-0.1-0.1-0.2c0,0-0.1-0.1-0.1-0.1c0,0-0.1-0.1-0.1-0.1c0,0-0.1-0.1-0.1-0.1c0,0-0.1-0.1-0.1-0.1c-0.1,0-0.1-0.1-0.2-0.1  c0,0-0.1,0-0.1-0.1c0,0,0,0,0,0c-0.1,0-0.1,0-0.2-0.1c-0.1,0-0.1,0-0.2-0.1c0,0-0.1,0-0.1,0c-0.1,0-0.1,0-0.2,0c0,0,0,0,0,0h-4.6  l3.6-7.6c0.4-0.9,0-2-0.9-2.4c-0.9-0.4-2,0-2.4,0.9l-4.8,10.1c0,0,0,0,0,0c0,0.1,0,0.1-0.1,0.2c0,0.1,0,0.1,0,0.2c0,0.1,0,0.1,0,0.2  c0,0.1,0,0.1,0,0.2c0,0,0,0,0,0c0,0,0,0.1,0,0.1c0,0.1,0,0.1,0,0.2c0,0.1,0,0.1,0,0.2c0,0.1,0,0.1,0.1,0.2c0,0.1,0,0.1,0.1,0.2  c0,0.1,0.1,0.1,0.1,0.2c0,0,0.1,0.1,0.1,0.1c0,0,0.1,0.1,0.1,0.1c0,0,0.1,0.1,0.1,0.1c0,0,0.1,0.1,0.1,0.1c0.1,0,0.1,0.1,0.2,0.1  c0,0,0.1,0,0.1,0.1c0,0,0,0,0,0c0.1,0,0.2,0.1,0.3,0.1c0,0,0.1,0,0.1,0c0.1,0,0.2,0,0.3,0c0,0,0,0,0.1,0c0,0,0,0,0,0h4.6l-1.4,3  c-0.4,0.9,0,2,0.9,2.4c0.3,0.1,0.5,0.2,0.8,0.2C-196.1,429.8-195.5,429.5-195.2,428.8z"></path><path fill="#000000" d="M-230.7,462.9h67.5c1,0,1.8-0.8,1.8-1.8c0-7.5-3.5-14.2-8.9-18.7c-0.1-0.1-0.2-0.2-0.3-0.3  c-3.7-2.9-8.2-4.8-13.1-5.1c7.7-4.5,12.8-12.8,12.8-22.3c0-9.7-5.4-18.2-13.3-22.6v-8.5c0-1-0.8-1.8-1.8-1.8h-21.8  c-1,0-1.8,0.8-1.8,1.8v8.7c-7.7,4.5-13,12.8-13,22.4c0,9.5,5.1,17.8,12.8,22.3c-5.1,0.3-9.7,2.2-13.5,5.2c-0.1,0.1-0.2,0.2-0.3,0.3  c-5.4,4.4-8.9,11.2-8.9,18.7C-232.5,462.1-231.7,462.9-230.7,462.9z M-220.6,444.6c1.1-0.8,2.3-1.6,3.6-2.2v16.8h-3.6V444.6z   M-180.6,441.1v18.1h-3.6v-18.7C-183,440.6-181.8,440.8-180.6,441.1z M-173.4,459.2h-3.6v-16.8c1.3,0.6,2.5,1.3,3.6,2.2V459.2z   M-195.2,453.5c0-1-0.8-1.8-1.8-1.8c-1,0-1.8,0.8-1.8,1.7v-7.3c0,1,0.8,1.7,1.8,1.7c1,0,1.8-0.8,1.8-1.8V453.5z M-202.4,459.2h-3.6  v-18.7h3.6V459.2z M-198.8,453.7c0,1,0.8,1.7,1.8,1.7c1,0,1.8-0.8,1.8-1.8v5.6h-3.6V453.7z M-191.5,440.5h3.6v18.7h-3.6V440.5z   M-195.2,440.5v5.6c0-1-0.8-1.8-1.8-1.8c-1,0-1.8,0.8-1.8,1.7v-5.6H-195.2z M-209.7,459.2h-3.6v-18.1c1.2-0.3,2.4-0.5,3.6-0.6V459.2  z M-165.1,459.2h-4.6V448C-167.2,451.1-165.5,455-165.1,459.2z M-191.5,389.4v-3.9h3.6v5C-189.1,390-190.3,389.6-191.5,389.4z   M-196.8,388.8c-0.7,0-1.3,0-2,0.1v-3.5h3.6v3.5C-195.7,388.8-196.2,388.8-196.8,388.8z M-206.1,385.4h3.6v4  c-1.3,0.3-2.5,0.6-3.6,1.1V385.4z M-219,414.7c0-12.3,10-22.2,22.2-22.2c12.3,0,22.2,10,22.2,22.2s-10,22.2-22.2,22.2  C-209,436.9-219,426.9-219,414.7z M-224.2,448v11.3h-4.6C-228.5,455-226.8,451.1-224.2,448z"></path><circle fill="#000000" cx="-208.5" cy="412.3" r="1.8"></circle><circle fill="#000000" cx="-185.1" cy="412.3" r="1.8"></circle></svg>