<svg xmlns="http://www.w3.org/2000/svg" xmlns:xlink="http://www.w3.org/1999/xlink" version="1.1" x="0px" y="0px" viewBox="-247 370.9 100 100" enable-background="new -247 370.9 100 100" xml:space="preserve"><path fill="#000000" d="M-195.3,428.3l2.6-5.6c0,0,0,0,0,0c0-0.1,0-0.1,0.1-0.2c0-0.1,0-0.1,0-0.2c0-0.1,0-0.1,0-0.2  c0-0.1,0-0.1,0-0.2c0,0,0,0,0,0c0,0,0-0.1,0-0.1c0-0.1,0-0.1,0-0.2c0-0.1,0-0.1,0-0.2c0-0.1,0-0.1-0.1-0.2c0-0.1,0-0.1-0.1-0.2  c0-0.1-0.1-0.1-0.1-0.2c0,0-0.1-0.1-0.1-0.1c0,0-0.1-0.1-0.1-0.1c0,0-0.1-0.1-0.1-0.1c0,0-0.1-0.1-0.1-0.1c-0.1,0-0.1-0.1-0.2-0.1  c0,0-0.1,0-0.1-0.1c0,0,0,0,0,0c-0.1,0-0.1,0-0.2-0.1c-0.1,0-0.1,0-0.2,0c0,0-0.1,0-0.2,0c-0.1,0-0.1,0-0.2,0c0,0,0,0,0,0h-4.6  l3.6-7.6c0.4-0.9,0-2-0.9-2.4c-0.9-0.4-2,0-2.4,0.9l-4.8,10.1c0,0,0,0,0,0c0,0.1,0,0.1-0.1,0.2c0,0.1,0,0.1,0,0.2c0,0.1,0,0.1,0,0.2  c0,0.1,0,0.1,0,0.2c0,0,0,0,0,0c0,0,0,0.1,0,0.1c0,0.1,0,0.1,0,0.2c0,0.1,0,0.1,0,0.2c0,0.1,0,0.1,0.1,0.2c0,0.1,0,0.1,0.1,0.2  c0,0.1,0.1,0.1,0.1,0.2c0,0,0.1,0.1,0.1,0.1c0,0,0.1,0.1,0.1,0.1c0,0,0.1,0.1,0.1,0.1c0,0,0.1,0.1,0.1,0.1c0.1,0,0.1,0.1,0.2,0.1  c0,0,0.1,0,0.1,0.1c0,0,0,0,0,0c0.1,0,0.2,0.1,0.3,0.1c0,0,0.1,0,0.1,0c0.1,0,0.2,0,0.3,0c0,0,0,0,0.1,0c0,0,0,0,0,0h4.6l-1.4,3  c-0.4,0.9,0,2,0.9,2.4c0.3,0.1,0.5,0.2,0.8,0.2C-196.3,429.3-195.7,428.9-195.3,428.3z"></path><path fill="#000000" d="M-232.7,460.8c0,1,0.8,1.8,1.8,1.8h67.5c1,0,1.8-0.8,1.8-1.8c0-12.8-10.1-23.4-22.7-24.1  c7.9-4.4,13.2-12.9,13.2-22.5c0-5.8-1.9-11.1-5.1-15.4c0,0,0-0.1-0.1-0.1c0,0-0.1-0.1-0.1-0.1c-2.4-3.2-5.5-5.8-9.2-7.6v-15.2  l-1.4-0.4c-6.5-1.7-13.6-1.7-20.1,0l-1.4,0.4V391c-3.6,1.8-6.7,4.4-9.2,7.6c0,0-0.1,0.1-0.1,0.1c0,0,0,0.1-0.1,0.1  c-3.2,4.3-5.1,9.7-5.1,15.4c0,9.7,5.3,18.1,13.2,22.5C-222.5,437.2-232.7,447.9-232.7,460.8z M-182.9,459c0-0.1,0-0.1,0-0.2  c0-1.5,1.2-2.6,2.6-2.6c1.5,0,2.6,1.2,2.6,2.6c0,0.1,0,0.2,0,0.2H-182.9z M-180.5,399.3c-1.4,0.7-2.9,1.1-4.5,1.1  c-5,0-9.1-3.6-10-8.3c0.8,0.1,1.6,0.2,2.4,0.3c0,0,0.1,0,0.1,0c0.3,0.1,0.5,0.1,0.8,0.2c0.1,0,0.2,0,0.3,0.1  c0.2,0.1,0.4,0.1,0.7,0.2c0.1,0,0.3,0.1,0.4,0.1c0.2,0.1,0.4,0.1,0.6,0.2c0.2,0.1,0.3,0.1,0.5,0.2c0.2,0.1,0.4,0.1,0.6,0.2  c0.2,0.1,0.3,0.1,0.5,0.2C-185.3,395-182.6,396.9-180.5,399.3z M-204.8,389.5v-10.9c5.1-1.1,10.5-1.1,15.6,0v10.9c0,0-0.1,0-0.1,0  c0,0-0.1,0-0.1,0c-0.3-0.1-0.7-0.2-1-0.3c-0.1,0-0.2,0-0.3-0.1c-0.3-0.1-0.6-0.2-1-0.2c-0.1,0-0.1,0-0.2,0c-0.8-0.2-1.6-0.3-2.4-0.4  c-0.1,0-0.2,0-0.3,0c-0.3,0-0.6-0.1-0.9-0.1c-0.1,0-0.2,0-0.3,0c-0.4,0-0.8,0-1.2,0c-0.4,0-0.8,0-1.2,0c-0.1,0-0.2,0-0.3,0  c-0.3,0-0.6,0-0.9,0.1c-0.1,0-0.2,0-0.3,0c-0.8,0.1-1.6,0.2-2.4,0.4c-0.1,0-0.1,0-0.2,0c-0.3,0.1-0.7,0.1-1,0.2  c-0.1,0-0.2,0-0.3,0.1c-0.3,0.1-0.7,0.2-1,0.3C-204.6,389.5-204.6,389.5-204.8,389.5C-204.7,389.5-204.8,389.5-204.8,389.5z   M-205.7,393.7c0.2-0.1,0.3-0.1,0.5-0.2c0.2-0.1,0.4-0.2,0.6-0.2c0.2-0.1,0.3-0.1,0.5-0.2c0.2-0.1,0.4-0.1,0.6-0.2  c0.1,0,0.3-0.1,0.4-0.1c0.2-0.1,0.4-0.1,0.7-0.2c0.1,0,0.2,0,0.3-0.1c0.3-0.1,0.5-0.1,0.8-0.2c0,0,0.1,0,0.1,0  c0.8-0.2,1.6-0.3,2.4-0.3c-0.9,4.7-5,8.3-10,8.3c-1.6,0-3.1-0.4-4.5-1.1C-211.3,396.9-208.7,395-205.7,393.7z M-219.2,414.2  c0-4.4,1.3-8.5,3.5-12c2,1.1,4.3,1.8,6.7,1.8c5.1,0,9.6-2.8,12-7c2.4,4.2,6.9,7,12,7c2.4,0,4.7-0.6,6.7-1.8c2.2,3.5,3.5,7.6,3.5,12  c0,12.3-10,22.2-22.2,22.2C-209.2,436.4-219.2,426.4-219.2,414.2z M-208.6,440.3h22.8c10.7,0,19.5,8.2,20.4,18.7h-8.7  c0-0.1,0-0.1,0-0.2c0-3.4-2.8-6.3-6.3-6.3c-3.4,0-6.3,2.8-6.3,6.3c0,0.1,0,0.2,0,0.2H-229C-228.1,448.5-219.3,440.3-208.6,440.3z"></path><path fill="#000000" d="M-204.1,412.2c-2.5-2.5-6.6-2.5-9.1,0c-0.7,0.7-0.7,1.9,0,2.6c0.7,0.7,1.9,0.7,2.6,0c1.1-1.1,2.9-1.1,4,0  c0.4,0.4,0.8,0.5,1.3,0.5s0.9-0.2,1.3-0.5C-203.4,414.1-203.4,412.9-204.1,412.2z"></path><path fill="#000000" d="M-187.2,414.8c1.1-1.1,2.9-1.1,4,0c0.4,0.4,0.8,0.5,1.3,0.5s0.9-0.2,1.3-0.5c0.7-0.7,0.7-1.9,0-2.6  c-2.5-2.5-6.6-2.5-9.1,0c-0.7,0.7-0.7,1.9,0,2.6C-189,415.5-187.9,415.5-187.2,414.8z"></path><circle fill="#000000" cx="-197.2" cy="445.9" r="1.8"></circle><circle fill="#000000" cx="-197.2" cy="453.4" r="1.8"></circle></svg>