<svg xmlns="http://www.w3.org/2000/svg" xmlns:xlink="http://www.w3.org/1999/xlink" version="1.1" x="0px" y="0px" viewBox="-247 370.9 100 100" enable-background="new -247 370.9 100 100" xml:space="preserve"><path fill="#000000" d="M-170.5,441.9c-0.1-0.1-0.2-0.2-0.3-0.3c-3.6-2.9-8.1-4.7-13-5.1c7.6-4.5,12.7-12.8,12.7-22.3  c0-5.8-1.9-11.1-5.1-15.4c0,0,0-0.1-0.1-0.1c0,0-0.1-0.1-0.1-0.1c-4.7-6.2-12.2-10.2-20.6-10.2c-8.4,0-15.8,4-20.6,10.2  c0,0-0.1,0.1-0.1,0.1c0,0,0,0.1-0.1,0.1c-3.2,4.3-5.1,9.7-5.1,15.4c0,9.4,5.1,17.7,12.7,22.2c-5,0.3-9.6,2.2-13.4,5.2  c-0.1,0.1-0.2,0.2-0.3,0.3c-5.4,4.4-8.9,11.2-8.9,18.7c0,1,0.8,1.8,1.8,1.8h67.5c1,0,1.8-0.8,1.8-1.8  C-161.6,453-165.1,446.3-170.5,441.9z M-220.8,444.1c1.1-0.8,2.3-1.6,3.6-2.2v16.8h-3.6V444.1z M-213.5,440.6  c1.2-0.3,2.4-0.5,3.6-0.6v18.7h-3.6V440.6z M-195.4,453c0-1-0.8-1.8-1.8-1.8c-1,0-1.8,0.8-1.8,1.7v-7.3c0,1,0.8,1.7,1.8,1.7  c1,0,1.8-0.8,1.8-1.8V453z M-197,440.1c0.5,0,1.1,0,1.6-0.1v5.6c0-1-0.8-1.8-1.8-1.8c-1,0-1.8,0.8-1.8,1.7V440h0.3  C-198.1,440.1-197.5,440.1-197,440.1z M-206.3,440h3.6v18.7h-3.6V440z M-199,453.2c0,1,0.8,1.7,1.8,1.7c1,0,1.8-0.8,1.8-1.8v5.6  h-3.6V453.2z M-191.7,440h3.6v18.7h-3.6V440z M-184.5,440.1c1.2,0.1,2.5,0.3,3.6,0.6v18.1h-3.6V440.1z M-177.2,441.9  c1.3,0.6,2.5,1.3,3.6,2.2v14.7h-3.6V441.9z M-180.5,399.4c-1.4,0.7-2.9,1.1-4.5,1.1c-5,0-9.1-3.6-10-8.3  C-189.3,392.6-184.1,395.3-180.5,399.4z M-199,392.1c-0.9,4.7-5,8.3-10,8.3c-1.6,0-3.1-0.4-4.5-1.1  C-209.8,395.3-204.7,392.6-199,392.1z M-219.2,414.2c0-4.4,1.3-8.5,3.5-12c2,1.1,4.3,1.8,6.7,1.8c5.1,0,9.6-2.8,12-7  c2.4,4.2,6.9,7,12,7c2.4,0,4.7-0.6,6.7-1.8c2.2,3.5,3.5,7.6,3.5,12c0,11.7-9.1,21.4-20.7,22.2h-3.1  C-210.1,435.6-219.2,426-219.2,414.2z M-224.4,447.5v11.3h-4.6C-228.7,454.5-227,450.6-224.4,447.5z M-170,458.8v-11.3  c2.6,3.1,4.3,7,4.6,11.3H-170z"></path><path fill="#000000" d="M-202.2,423.8c0.1,0,0.2,0,0.3,0c0,0,0,0,0.1,0c0,0,0,0,0,0h4.6l-1.4,3c-0.4,0.9,0,2,0.9,2.4  c0.3,0.1,0.5,0.2,0.8,0.2c0.7,0,1.3-0.4,1.6-1l2.6-5.6c0,0,0,0,0,0c0-0.1,0-0.1,0.1-0.2c0-0.1,0-0.1,0-0.2c0-0.1,0-0.1,0-0.2  c0-0.1,0-0.1,0-0.2c0,0,0,0,0,0c0,0,0-0.1,0-0.1c0-0.1,0-0.1,0-0.2c0-0.1,0-0.1,0-0.2c0-0.1,0-0.1-0.1-0.2c0-0.1,0-0.1-0.1-0.2  c0-0.1-0.1-0.1-0.1-0.2c0,0-0.1-0.1-0.1-0.1c0,0-0.1-0.1-0.1-0.1c0,0-0.1-0.1-0.1-0.1c0,0-0.1-0.1-0.1-0.1c-0.1,0-0.1-0.1-0.2-0.1  c0,0-0.1,0-0.1-0.1c0,0,0,0,0,0c-0.1,0-0.1,0-0.2-0.1c-0.1,0-0.1,0-0.2,0c0,0-0.1,0-0.2,0c-0.1,0-0.1,0-0.2,0c0,0,0,0,0,0h-4.6  l3.6-7.6c0.4-0.9,0-2-0.9-2.4c-0.9-0.4-2,0-2.4,0.9l-4.8,10.1c0,0,0,0,0,0c0,0.1,0,0.1-0.1,0.2c0,0.1,0,0.1,0,0.2c0,0.1,0,0.1,0,0.2  c0,0.1,0,0.1,0,0.2c0,0,0,0,0,0c0,0,0,0.1,0,0.1c0,0.1,0,0.1,0,0.2c0,0.1,0,0.1,0,0.2c0,0.1,0,0.1,0.1,0.2c0,0.1,0,0.1,0.1,0.2  c0,0.1,0.1,0.1,0.1,0.2c0,0,0.1,0.1,0.1,0.1c0,0,0.1,0.1,0.1,0.1c0,0,0.1,0.1,0.1,0.1c0,0,0.1,0.1,0.1,0.1c0.1,0,0.1,0.1,0.2,0.1  c0,0,0.1,0,0.1,0.1c0,0,0,0,0,0C-202.5,423.7-202.4,423.7-202.2,423.8C-202.3,423.8-202.2,423.8-202.2,423.8z"></path><path fill="#000000" d="M-204.1,410.9c-0.7-0.7-1.9-0.7-2.6,0c-1.1,1.1-2.9,1.1-4,0c-0.7-0.7-1.9-0.7-2.6,0c-0.7,0.7-0.7,1.9,0,2.6  c1.3,1.3,2.9,1.9,4.6,1.9c1.6,0,3.3-0.6,4.6-1.9C-203.4,412.8-203.4,411.6-204.1,410.9z"></path><path fill="#000000" d="M-185.2,415.4c1.6,0,3.3-0.6,4.6-1.9c0.7-0.7,0.7-1.9,0-2.6c-0.7-0.7-1.9-0.7-2.6,0c-1.1,1.1-2.9,1.1-4,0  c-0.7-0.7-1.9-0.7-2.6,0c-0.7,0.7-0.7,1.9,0,2.6C-188.5,414.7-186.8,415.4-185.2,415.4z"></path></svg>