<svg xmlns="http://www.w3.org/2000/svg" xmlns:xlink="http://www.w3.org/1999/xlink" version="1.1" x="0px" y="0px" viewBox="-247 370.9 100 100" enable-background="new -247 370.9 100 100" xml:space="preserve"><path fill="#000000" d="M-232.5,461.1c0,1,0.8,1.8,1.8,1.8h67.5c1,0,1.8-0.8,1.8-1.8c0-12.9-10.2-23.5-22.9-24.1  c5.7-3.2,10-8.4,12-14.7c4-0.3,7.2-3.7,7.2-7.8c0-17.6-14.3-31.9-31.9-31.9c-17.6,0-31.9,14.3-31.9,31.9v15.7c0,1,0.8,1.8,1.8,1.8  h11.1c1.8,2,4,3.7,6.3,5C-222.4,437.6-232.5,448.2-232.5,461.1z M-183.4,459.2v-6.5h6.5v6.5H-183.4z M-165.1,459.2h-8.1v-8.3  c0-1-0.8-1.8-1.8-1.8h-10.1c-1,0-1.8,0.8-1.8,1.8v8.3h-8.2v-18.7h9.6C-174.9,440.5-166,448.8-165.1,459.2z M-171.4,418.3  c0.2-1.3,0.3-2.6,0.3-3.9c0-1.3-0.1-2.6-0.3-3.9c1.6,0.6,2.7,2.1,2.7,3.9C-168.7,416.2-169.9,417.7-171.4,418.3z M-197,386.2  c13.1,0,24.2,9,27.3,21.2c-0.8-0.4-1.7-0.6-2.7-0.7c-3.3-10.5-13.1-18.1-24.6-18.1c-11.5,0-21.3,7.6-24.6,18.1  c-1,0.1-1.9,0.3-2.7,0.7C-221.2,395.2-210.1,386.2-197,386.2z M-222.5,418.3c-1.6-0.6-2.7-2.1-2.7-3.9c0-1.8,1.1-3.3,2.7-3.9  c-0.2,1.3-0.3,2.6-0.3,3.9C-222.8,415.7-222.7,417-222.5,418.3z M-225.2,428.3V421c1.1,0.7,2.3,1.1,3.6,1.2c0.7,2.2,1.7,4.2,2.9,6.1  H-225.2z M-204.2,428.3h-10.1c-3.1-3.8-4.9-8.6-4.9-13.9c0-12.3,10-22.2,22.2-22.2c12.3,0,22.2,10,22.2,22.2s-10,22.2-22.2,22.2  c-5.1,0-9.9-1.8-13.7-4.7h6.5c1,0,1.8-0.8,1.8-1.8C-202.4,429.1-203.2,428.3-204.2,428.3z M-208.4,440.5h9.6v18.7h-30  C-227.9,448.8-219.1,440.5-208.4,440.5z"></path><path fill="#000000" d="M-202.2,424c0.1,0,0.2,0,0.3,0c0,0,0,0,0.1,0c0,0,0,0,0,0h4.6l-1.4,3c-0.4,0.9,0,2,0.9,2.4  c0.3,0.1,0.5,0.2,0.8,0.2c0.7,0,1.3-0.4,1.6-1l2.6-5.6c0,0,0,0,0,0c0-0.1,0-0.1,0.1-0.2c0-0.1,0-0.1,0-0.2c0-0.1,0-0.1,0-0.2  c0-0.1,0-0.1,0-0.2c0,0,0,0,0,0c0,0,0-0.1,0-0.1c0-0.1,0-0.1,0-0.2c0-0.1,0-0.1,0-0.2c0-0.1,0-0.1-0.1-0.2c0-0.1,0-0.1-0.1-0.2  c0-0.1-0.1-0.1-0.1-0.2c0,0-0.1-0.1-0.1-0.1c0,0-0.1-0.1-0.1-0.1c0,0-0.1-0.1-0.1-0.1c0,0-0.1-0.1-0.1-0.1c-0.1,0-0.1-0.1-0.2-0.1  c0,0-0.1,0-0.1-0.1c0,0,0,0,0,0c-0.1,0-0.1,0-0.2-0.1c-0.1,0-0.1,0-0.2,0c0,0-0.1,0-0.2,0c-0.1,0-0.1,0-0.2,0c0,0,0,0,0,0h-4.6  l3.6-7.6c0.4-0.9,0-2-0.9-2.4c-0.9-0.4-2,0-2.4,0.9l-4.8,10.1c0,0,0,0,0,0c0,0.1,0,0.1-0.1,0.2c0,0.1,0,0.1,0,0.2c0,0.1,0,0.1,0,0.2  c0,0.1,0,0.1,0,0.2c0,0,0,0,0,0c0,0,0,0.1,0,0.1c0,0.1,0,0.1,0,0.2c0,0.1,0,0.1,0,0.2c0,0.1,0,0.1,0.1,0.2c0,0.1,0,0.1,0.1,0.2  c0,0.1,0.1,0.1,0.1,0.2c0,0,0.1,0.1,0.1,0.1c0,0,0.1,0.1,0.1,0.1c0,0,0.1,0.1,0.1,0.1c0,0,0.1,0.1,0.1,0.1c0.1,0,0.1,0.1,0.2,0.1  c0,0,0.1,0,0.1,0.1c0,0,0,0,0,0C-202.5,423.9-202.4,423.9-202.2,424C-202.3,423.9-202.2,424-202.2,424z"></path><circle fill="#000000" cx="-185.2" cy="412" r="1.8"></circle><circle fill="#000000" cx="-208.8" cy="412" r="1.8"></circle></svg>