<svg xmlns="http://www.w3.org/2000/svg" xmlns:xlink="http://www.w3.org/1999/xlink" version="1.1" x="0px" y="0px" viewBox="-247 370.9 100 100" enable-background="new -247 370.9 100 100" xml:space="preserve"><path fill="#000000" d="M-179.9,437.6c1.6-1.4,2.5-3.5,2.5-5.8c0-0.3,0-0.7-0.1-1c3.8-4.6,6-10.5,6-16.5c0-3.9-0.9-7.8-2.6-11.2  c0.4-0.7,0.6-1.5,0.6-2.4c0-2.6-1.8-4.7-4.2-5.3c-2.5-12-13-20.6-25.3-20.6c-13.8,0-25,10.8-25.8,24.4c-2.1,0.7-3.7,2.8-3.7,5.2  c0,3,2.4,5.5,5.5,5.5c2.2,0,4.2-1.4,5-3.3c-0.8,2.5-1.2,5.2-1.2,7.8c0,6.2,2.2,12.2,6.3,16.9c0,0.2,0,0.4,0,0.6c0,2.3,1,4.3,2.6,5.8  c-10.6,2.6-18.4,12.3-18.4,23.5c0,1,0.8,1.8,1.8,1.8h67.6c1,0,1.8-0.8,1.8-1.8C-161.5,449.8-169.3,440.2-179.9,437.6z M-165.2,459.2  h-30.1v-5.4c0.4,0.1,0.7,0.1,1.1,0.1c3,0,5.5-2.2,5.9-5.1c3.8-0.6,6.7-3.8,6.7-7.7c0-0.1,0-0.2,0-0.3  C-172.8,442.7-166,450.2-165.2,459.2z M-204.4,445.3c-0.2,0-0.3,0-0.5,0c-2.3,0-4.2-1.9-4.2-4.2c0-0.5,0.1-1,0.3-1.5  c0.1-0.1,0.2-0.3,0.2-0.5c0.1-0.2,0.2-0.3,0.3-0.4l1.7-2.4l-2.9-0.4c-2.1-0.3-3.7-2-3.7-4.2c0-2.3,1.9-4.2,4.2-4.2  c0.3,0,0.7,0,1,0.1l1.4,0.3l0.7-1.2c1.8-3.2,5.2-5.3,8.9-5.3c3.7,0,7.1,2,8.9,5.3l0.7,1.2l1.4-0.3c0.4-0.1,0.7-0.1,1-0.1  c1.9,0,3.6,1.3,4,3.1c0,0,0,0,0,0c0.1,0.3,0.1,0.7,0.1,1c0,2.2-1.6,3.9-3.8,4.2l-3,0.3l1.7,2.5c0.1,0.1,0.2,0.3,0.3,0.5  c0,0.1,0.1,0.3,0.2,0.4c0.2,0.5,0.3,1,0.3,1.5c0,2.3-1.9,4.2-4.2,4.2c-0.1,0-0.3,0-0.5,0l-2.5-0.3l0.5,2.5c0,0.2,0.1,0.3,0.1,0.5  c0,1.3-1,2.3-2.3,2.3c-0.6,0-1.2-0.3-1.7-0.7l-1.3-1.3l-1.3,1.3c-0.4,0.5-1,0.7-1.7,0.7c-1.3,0-2.3-1-2.3-2.3c0-0.2,0-0.3,0.1-0.5  l0.5-2.5L-204.4,445.3z M-178.9,402.5c-1,0-1.8-0.8-1.8-1.8c0-1,0.8-1.8,1.8-1.8c1,0,1.8,0.8,1.8,1.8  C-177.1,401.7-177.9,402.5-178.9,402.5z M-202.9,378.4c10.5,0,19.4,7.2,21.7,17.3c-0.5,0.2-0.9,0.5-1.3,0.9c-1-0.9-2.2-1.4-3.6-1.4  c-1.4,0-2.7,0.5-3.6,1.4c-1-0.9-2.2-1.4-3.6-1.4c-1.4,0-2.7,0.5-3.6,1.4c-1-0.9-2.2-1.4-3.6-1.4c-1.4,0-2.7,0.5-3.6,1.4  c-1-0.9-2.2-1.4-3.6-1.4s-2.7,0.5-3.6,1.4c-1-0.9-2.2-1.4-3.6-1.4c-0.2,0-0.3,0-0.5,0c-1.4-1.4-3.3-2.2-5.4-2.2c-1,0-2,0.2-2.9,0.6  C-221.1,384.8-212.7,378.4-202.9,378.4z M-184.4,400.7c0,1-0.8,1.8-1.8,1.8c-1,0-1.8-0.8-1.8-1.8c0-1,0.8-1.8,1.8-1.8  C-185.2,398.9-184.4,399.7-184.4,400.7z M-191.6,400.7c0,1-0.8,1.8-1.8,1.8c-1,0-1.8-0.8-1.8-1.8c0-1,0.8-1.8,1.8-1.8  C-192.5,398.9-191.6,399.7-191.6,400.7z M-198.9,400.7c0,1-0.8,1.8-1.8,1.8c-1,0-1.8-0.8-1.8-1.8c0-1,0.8-1.8,1.8-1.8  C-199.8,398.9-198.9,399.7-198.9,400.7z M-206.2,400.7c0,1-0.8,1.8-1.8,1.8s-1.8-0.8-1.8-1.8c0-1,0.8-1.8,1.8-1.8  S-206.2,399.7-206.2,400.7z M-217.2,400.7c0-1,0.8-1.8,1.8-1.8c1,0,1.8,0.8,1.8,1.8c0,1-0.8,1.8-1.8,1.8  C-216.4,402.5-217.2,401.7-217.2,400.7z M-227,406.2c-1,0-1.8-0.8-1.8-1.8c0-1,0.8-1.8,1.8-1.8s1.8,0.8,1.8,1.8  C-225.2,405.4-226,406.2-227,406.2z M-224.9,399.3c0.6-1.5,2-2.6,3.8-2.6c0.6,0,1.2,0.1,1.7,0.4c-0.9,1-1.4,2.2-1.4,3.6  c0,0.7,0.1,1.4,0.4,2c-0.5,1-0.9,2-1.3,3.1c0.1-0.5,0.2-0.9,0.2-1.4C-221.6,402.1-223,400.1-224.9,399.3z M-219.6,414.3  c0-3,0.6-6,1.8-8.8c0.7,0.4,1.6,0.6,2.4,0.6c1.4,0,2.7-0.5,3.6-1.4c1,0.9,2.2,1.4,3.6,1.4s2.7-0.5,3.6-1.4c1,0.9,2.2,1.4,3.6,1.4  c1.4,0,2.7-0.5,3.6-1.4c1,0.9,2.2,1.4,3.6,1.4c1.4,0,2.7-0.5,3.6-1.4c1,0.9,2.2,1.4,3.6,1.4c1.4,0,2.7-0.5,3.6-1.4  c1,0.9,2.2,1.4,3.6,1.4c0.7,0,1.5-0.2,2.1-0.4c1.1,2.7,1.7,5.6,1.7,8.6c0,4.6-1.4,9-4,12.7c-1.4-1.8-3.6-3-6.1-3c-0.2,0-0.4,0-0.6,0  c-2.6-3.7-6.8-6-11.4-6c-0.4,0-0.8,0-1.2,0.1l2.5-5.3c0.4-0.9,0-2-0.9-2.4c-0.9-0.4-2,0-2.4,0.9l-3.9,8.1c-2.2,1-4.2,2.7-5.6,4.8  c-0.2,0-0.4,0-0.6,0c-2.6,0-4.9,1.3-6.3,3.2C-218.1,423.5-219.6,419-219.6,414.3z M-212.7,440.9c0,0.1,0,0.1,0,0.2  c0,3.9,2.9,7.2,6.7,7.7c0.4,2.9,2.9,5.1,5.9,5.1c0.4,0,0.8-0.1,1.2-0.1v5.5H-229C-228.2,450.2-221.5,442.7-212.7,440.9z"></path><path fill="#000000" d="M-195.8,434.4c2.7,0,4.9-2.2,4.9-4.9s-2.2-4.9-4.9-4.9h-3.1c-2.7,0-4.9,2.2-4.9,4.9s2.2,4.9,4.9,4.9H-195.8z   M-200.2,429.5c0-0.7,0.6-1.3,1.3-1.3h3.1c0.7,0,1.3,0.6,1.3,1.3s-0.6,1.3-1.3,1.3h-3.1C-199.6,430.8-200.2,430.2-200.2,429.5z"></path><circle fill="#000000" cx="-209.1" cy="412" r="1.8"></circle><circle fill="#000000" cx="-185.6" cy="412" r="1.8"></circle></svg>