<svg xmlns="http://www.w3.org/2000/svg" xmlns:xlink="http://www.w3.org/1999/xlink" version="1.1" x="0px" y="0px" viewBox="-247 370.9 100 100" enable-background="new -247 370.9 100 100" xml:space="preserve"><path fill="#000000" d="M-184.3,436.9c7.9-4.4,13.2-12.9,13.2-22.5c0-9.6-5.3-18-13.1-22.5c-0.1-0.1-0.2-0.1-0.3-0.2  c-3-1.7-6.5-2.7-10.1-3.1c-2.1-1.9-3.3-4.6-3.3-7.5c0-0.7,0.1-1.4,0.2-2.2c0.1-0.6-0.1-1.2-0.5-1.7c-0.4-0.4-1.1-0.6-1.7-0.5  c-6.3,1.4-10.9,7-10.9,13.5c0,0.7,0.1,1.4,0.2,2.1c-7.5,4.7-12.2,13-12.2,21.9c0,9.7,5.3,18.1,13.2,22.5  c-12.7,0.6-22.9,11.2-22.9,24.1c0,1,0.8,1.8,1.8,1.8h67.5c1,0,1.8-0.8,1.8-1.8C-161.4,448.2-171.6,437.6-184.3,436.9z M-201.6,381.3  c0,4.1,1.9,7.9,5,10.5c0,0,0,0,0,0c0.1,0,0.1,0.1,0.2,0.1c0,0,0.1,0.1,0.1,0.1c0,0,0.1,0,0.1,0.1c0.1,0,0.1,0.1,0.2,0.1  c0,0,0.1,0,0.1,0c0.1,0,0.2,0,0.2,0c0,0,0,0,0,0l0.1,0c2.8,0.2,5.5,0.9,7.9,2.1c-1.6,3.8-5.2,6.3-9.4,6.3c-5.6,0-10.2-4.6-10.2-10.2  C-207.2,386.5-205,383-201.6,381.3z M-198.8,459.2h-30c0.9-10.5,9.7-18.7,20.4-18.7h9.6V459.2z M-219.2,414.4  c0-7.4,3.7-14.2,9.6-18.3c2.2,4.8,7,8.1,12.6,8.1c5.5,0,10.4-3.2,12.6-8.1c5.8,4,9.6,10.8,9.6,18.3c0,12.3-10,22.2-22.2,22.2  C-209.2,436.6-219.2,426.7-219.2,414.4z M-176.8,459.2h-6.5v-6.5h6.5V459.2z M-173.2,459.2v-8.3c0-1-0.8-1.8-1.8-1.8h-10.1  c-1,0-1.8,0.8-1.8,1.8v8.3h-8.2v-18.7h9.6c10.7,0,19.5,8.2,20.4,18.7H-173.2z"></path><path fill="#000000" d="M-192.6,421.9c0-0.1,0-0.1,0-0.2c0-0.1,0-0.1-0.1-0.2c0-0.1,0-0.1-0.1-0.2c0-0.1-0.1-0.1-0.1-0.2  c0,0-0.1-0.1-0.1-0.1c0,0-0.1-0.1-0.1-0.1c0,0-0.1-0.1-0.1-0.1c0,0-0.1-0.1-0.1-0.1c-0.1,0-0.1-0.1-0.2-0.1c0,0-0.1,0-0.1-0.1  c0,0,0,0,0,0c-0.1,0-0.1,0-0.2-0.1c-0.1,0-0.1,0-0.2-0.1c0,0-0.1,0-0.1,0c-0.1,0-0.1,0-0.2,0c0,0,0,0,0,0h-4.6l3.6-7.6  c0.4-0.9,0-2-0.9-2.4c-0.9-0.4-2,0-2.4,0.9l-4.8,10.1c0,0,0,0,0,0c0,0.1,0,0.1-0.1,0.2c0,0.1,0,0.1,0,0.2c0,0.1,0,0.1,0,0.2  c0,0.1,0,0.1,0,0.2c0,0,0,0,0,0c0,0,0,0.1,0,0.1c0,0.1,0,0.1,0,0.2c0,0.1,0,0.1,0,0.2c0,0.1,0,0.1,0.1,0.2c0,0.1,0,0.1,0.1,0.2  c0,0.1,0.1,0.1,0.1,0.2c0,0,0.1,0.1,0.1,0.1c0,0,0.1,0.1,0.1,0.1c0,0,0.1,0.1,0.1,0.1c0,0,0.1,0.1,0.1,0.1c0.1,0,0.1,0.1,0.2,0.1  c0,0,0.1,0,0.1,0.1c0,0,0,0,0,0c0.1,0,0.2,0.1,0.3,0.1c0,0,0.1,0,0.1,0c0.1,0,0.2,0,0.3,0c0,0,0,0,0.1,0c0,0,0,0,0,0h4.6l-1.4,3  c-0.4,0.9,0,2,0.9,2.4c0.3,0.1,0.5,0.2,0.8,0.2c0.7,0,1.3-0.4,1.6-1l2.6-5.6c0,0,0,0,0,0c0-0.1,0-0.1,0.1-0.2c0-0.1,0-0.1,0-0.2  c0-0.1,0-0.1,0-0.2c0-0.1,0-0.1,0-0.2c0,0,0,0,0,0c0,0,0-0.1,0-0.1C-192.5,422-192.5,421.9-192.6,421.9z"></path><circle fill="#000000" cx="-185.2" cy="412" r="1.8"></circle><circle fill="#000000" cx="-208.8" cy="412" r="1.8"></circle></svg>