<svg xmlns="http://www.w3.org/2000/svg" xmlns:xlink="http://www.w3.org/1999/xlink" version="1.1" x="0px" y="0px" viewBox="-247 370.9 100 100" enable-background="new -247 370.9 100 100" xml:space="preserve"><path fill="#000000" d="M-176.7,438.6c6.7-3.2,11.3-10,11.3-17.9c0-0.6-0.3-1.1-0.8-1.5c-0.5-0.3-1.1-0.4-1.6-0.2l-4.1,1.4  c0.5-2,0.7-4,0.7-6c0-14.3-11.6-25.9-25.9-25.9c-14.3,0-25.9,11.6-25.9,25.9c0,2.1,0.2,4.1,0.7,6.1l-4.4-1.5  c-0.6-0.2-1.2-0.1-1.6,0.2c-0.5,0.3-0.8,0.9-0.8,1.5c0,7.9,4.7,14.8,11.4,18c-8.9,3.6-15.1,12.3-15.1,22.4c0,1,0.8,1.8,1.8,1.8h67.5  c1,0,1.8-0.8,1.8-1.8C-161.4,450.9-167.8,442.2-176.7,438.6z M-185.1,436.9c-0.2,0-0.3,0-0.5,0h-1.9c2.5-2.3,4.1-5.4,4.4-8.9  l13.9-4.7C-170.4,431-177.1,436.9-185.1,436.9z M-194,392.4c-1.2,0.8-2.2,1.8-3,3c-0.8-1.2-1.8-2.2-3-3c1-0.1,2-0.2,3-0.2  C-196,392.2-195,392.2-194,392.4z M-219.2,414.4c0-9.1,5.4-16.9,13.2-20.3c4,0.1,7.2,3.3,7.2,7.3c0,1,0.8,1.8,1.8,1.8  c1,0,1.8-0.8,1.8-1.8c0-4,3.2-7.2,7.2-7.3c7.8,3.5,13.2,11.3,13.2,20.3c0,2.5-0.4,5-1.3,7.4l-9.4,3.2c-0.7,0.2-1.2,0.9-1.2,1.7  c0,5.5-4.4,10.1-10,10.2h-1c-5.5-0.1-10-4.7-10-10.2c0-0.8-0.5-1.5-1.2-1.7l-9.1-3.1C-218.8,419.5-219.2,417-219.2,414.4z   M-209,436.9c-8.1,0-14.8-5.9-16-13.6l13.9,4.7c0.3,3.5,2,6.6,4.4,8.9h-1.7C-208.6,436.9-208.8,436.9-209,436.9  C-209,436.9-209,436.9-209,436.9z M-208.4,440.5h9.6v18.7h-30C-227.9,448.8-219.1,440.5-208.4,440.5z M-195.2,459.2v-18.7h9.6  c0.1,0,0.3,0,0.4,0c0,0,0,0,0,0c0,0,0,0,0,0c10.5,0.2,19.1,8.4,20,18.7H-195.2z"></path><path fill="#000000" d="M-203.6,422.3c0,0.1,0,0.1,0,0.2c0,0.1,0,0.1,0,0.2c0,0.1,0,0.1,0.1,0.2c0,0.1,0,0.1,0.1,0.2  c0,0.1,0.1,0.1,0.1,0.2c0,0,0.1,0.1,0.1,0.1c0,0,0.1,0.1,0.1,0.1c0,0,0.1,0.1,0.1,0.1c0,0,0.1,0.1,0.1,0.1c0.1,0,0.1,0.1,0.2,0.1  c0,0,0.1,0,0.1,0.1c0,0,0,0,0,0c0.1,0,0.2,0.1,0.3,0.1c0,0,0.1,0,0.1,0c0.1,0,0.2,0,0.3,0c0,0,0,0,0.1,0c0,0,0,0,0,0h7.5  c1,0,1.8-0.8,1.8-1.8c0-1-0.8-1.8-1.8-1.8h-4.6l3.6-7.6c0.4-0.9,0-2-0.9-2.4c-0.9-0.4-2,0-2.4,0.9l-4.8,10.1c0,0,0,0,0,0  c0,0.1,0,0.1-0.1,0.2c0,0.1,0,0.1,0,0.2c0,0.1,0,0.1,0,0.2c0,0.1,0,0.1,0,0.2c0,0,0,0,0,0C-203.6,422.2-203.6,422.3-203.6,422.3z"></path><path fill="#000000" d="M-207,418.1c0-1-0.8-1.8-1.8-1.8c-2.3,0-4.2-1.9-4.2-4.2c0-1-0.8-1.8-1.8-1.8c-1,0-1.8,0.8-1.8,1.8  c0,4.3,3.5,7.8,7.8,7.8C-207.8,419.9-207,419.1-207,418.1z"></path><path fill="#000000" d="M-187,418.1c0,1,0.8,1.8,1.8,1.8c4.3,0,7.8-3.5,7.8-7.8c0-1-0.8-1.8-1.8-1.8c-1,0-1.8,0.8-1.8,1.8  c0,2.3-1.9,4.2-4.2,4.2C-186.2,416.3-187,417.1-187,418.1z"></path><circle fill="#000000" cx="-208.8" cy="412" r="1.8"></circle><circle fill="#000000" cx="-185.2" cy="412" r="1.8"></circle><path fill="#000000" d="M-203.4,429.6h1.3v2.2c0,1,0.8,1.8,1.8,1.8c1,0,1.8-0.8,1.8-1.8v-2.2h2.8v2.2c0,1,0.8,1.8,1.8,1.8  c1,0,1.8-0.8,1.8-1.8v-2.2h1.7c1,0,1.8-0.8,1.8-1.8c0-1-0.8-1.8-1.8-1.8h-13c-1,0-1.8,0.8-1.8,1.8  C-205.2,428.8-204.4,429.6-203.4,429.6z"></path><path fill="#000000" d="M-203.2,451.6c1,0,1.8-0.8,1.8-1.8v-4c0-1-0.8-1.8-1.8-1.8c-1,0-1.8,0.8-1.8,1.8v4  C-205,450.8-204.2,451.6-203.2,451.6z"></path><circle fill="#000000" cx="-203.2" cy="454.8" r="1.8"></circle></svg>