<svg xmlns="http://www.w3.org/2000/svg" xmlns:xlink="http://www.w3.org/1999/xlink" version="1.1" x="0px" y="0px" viewBox="-247 370.9 100 100" enable-background="new -247 370.9 100 100" xml:space="preserve"><path fill="#000000" d="M-202.2,424c0.1,0,0.2,0,0.3,0c0,0,0,0,0.1,0c0,0,0,0,0,0h4.6l-1.4,3c-0.4,0.9,0,2,0.9,2.4  c0.3,0.1,0.5,0.2,0.8,0.2c0.7,0,1.3-0.4,1.6-1l2.6-5.6c0,0,0,0,0,0c0-0.1,0-0.1,0.1-0.2c0-0.1,0-0.1,0-0.2c0-0.1,0-0.1,0-0.2  c0-0.1,0-0.1,0-0.2c0,0,0,0,0,0c0,0,0-0.1,0-0.1c0-0.1,0-0.1,0-0.2c0-0.1,0-0.1,0-0.2c0-0.1,0-0.1-0.1-0.2c0-0.1,0-0.1-0.1-0.2  c0-0.1-0.1-0.1-0.1-0.2c0,0-0.1-0.1-0.1-0.1c0,0-0.1-0.1-0.1-0.1c0,0-0.1-0.1-0.1-0.1c0,0-0.1-0.1-0.1-0.1c-0.1,0-0.1-0.1-0.2-0.1  c0,0-0.1,0-0.1-0.1c0,0,0,0,0,0c-0.1,0-0.1,0-0.2-0.1c-0.1,0-0.1,0-0.2,0c0,0-0.1,0-0.1,0c-0.1,0-0.1,0-0.2,0c0,0,0,0,0,0h-4.6  l3.6-7.6c0.4-0.9,0-2-0.9-2.4c-0.9-0.4-2,0-2.4,0.9l-4.8,10.1c0,0,0,0,0,0c0,0.1,0,0.1-0.1,0.2c0,0.1,0,0.1,0,0.2c0,0.1,0,0.1,0,0.2  c0,0.1,0,0.1,0,0.2c0,0,0,0,0,0c0,0,0,0.1,0,0.1c0,0.1,0,0.1,0,0.2c0,0.1,0,0.1,0,0.2c0,0.1,0,0.1,0.1,0.2c0,0.1,0,0.1,0.1,0.2  c0,0.1,0.1,0.1,0.1,0.2c0,0,0.1,0.1,0.1,0.1c0,0,0.1,0.1,0.1,0.1c0,0,0.1,0.1,0.1,0.1c0,0,0.1,0.1,0.1,0.1c0.1,0,0.1,0.1,0.2,0.1  c0,0,0.1,0,0.1,0.1c0,0,0,0,0,0C-202.5,423.9-202.4,423.9-202.2,424C-202.3,423.9-202.2,424-202.2,424z"></path><path fill="#000000" d="M-232.5,461.1c0,1,0.8,1.8,1.8,1.8h67.5c1,0,1.8-0.8,1.8-1.8c0-12.9-10.2-23.5-22.9-24.1  c5.7-3.2,10-8.4,12-14.7c4-0.3,7.2-3.7,7.2-7.8c0-17.6-14.3-31.9-31.9-31.9c-0.3,0-0.6,0-0.9,0c-0.1-0.5-0.1-0.9-0.1-1.4  c0-0.7,0.1-1.4,0.2-2.2c0.1-0.6-0.1-1.2-0.5-1.7c-0.4-0.4-1.1-0.6-1.7-0.5c-4.6,1-8.2,4.2-9.9,8.4c-11.6,5.1-19,16.5-19,29.2v15.7  c0,1,0.8,1.8,1.8,1.8h11.1c1.8,2,4,3.7,6.3,5C-222.4,437.6-232.5,448.2-232.5,461.1z M-183.4,459.2v-6.5h6.5v6.5H-183.4z   M-171.4,418.3c0.2-1.3,0.3-2.6,0.3-3.9c0-1.3-0.1-2.6-0.3-3.9c1.6,0.6,2.7,2.1,2.7,3.9C-168.7,416.2-169.9,417.7-171.4,418.3z   M-169.6,407.3c-0.8-0.4-1.7-0.6-2.7-0.7c-2-6.2-6.3-11.5-11.9-14.7c-0.1-0.1-0.2-0.1-0.3-0.2c-3-1.7-6.5-2.7-10.1-3.1  c-0.8-0.7-1.5-1.6-2-2.5C-183.7,386.3-172.8,395.3-169.6,407.3z M-201.6,381.3c0,1.3,0.2,2.5,0.5,3.7c0,0,0,0,0,0  c0.8,2.7,2.3,5,4.5,6.9c0,0,0,0,0,0c0.1,0,0.1,0.1,0.2,0.1c0,0,0.1,0.1,0.1,0.1c0,0,0.1,0,0.1,0.1c0.1,0,0.1,0.1,0.2,0.1  c0,0,0.1,0,0.1,0c0.1,0,0.2,0,0.2,0c0,0,0,0,0,0l0.1,0c2.8,0.2,5.5,0.9,7.9,2.1c-1.6,3.8-5.2,6.3-9.4,6.3c-5.6,0-10.2-4.6-10.2-10.2  C-207.2,386.5-205,383-201.6,381.3z M-210.8,389.8c0,0.2,0,0.4,0,0.6c0,0.7,0.1,1.4,0.2,2.1c-5.3,3.3-9.1,8.3-11,14.1  c-1,0.1-1.9,0.3-2.7,0.7C-222.4,399.9-217.6,393.5-210.8,389.8z M-222.5,418.3c-1.6-0.6-2.7-2.1-2.7-3.9c0-1.8,1.1-3.3,2.7-3.9  c-0.2,1.3-0.3,2.6-0.3,3.9C-222.8,415.7-222.7,417-222.5,418.3z M-225.2,428.3V421c1.1,0.7,2.3,1.1,3.6,1.2c0.7,2.2,1.7,4.2,2.9,6.1  H-225.2z M-204.2,428.3h-10.1c-3.1-3.8-4.9-8.6-4.9-13.9c0-7.4,3.7-14.2,9.6-18.3c2.2,4.8,7,8.1,12.6,8.1c5.5,0,10.4-3.2,12.6-8.1  c5.8,4,9.6,10.8,9.6,18.3c0,12.3-10,22.2-22.2,22.2c-5.1,0-9.9-1.8-13.7-4.7h6.5c1,0,1.8-0.8,1.8-1.8  C-202.4,429.1-203.2,428.3-204.2,428.3z M-208.4,440.5h22.8c10.7,0,19.5,8.2,20.4,18.7h-8.1v-8.3c0-1-0.8-1.8-1.8-1.8h-10.1  c-1,0-1.8,0.8-1.8,1.8v8.3h-41.8C-227.9,448.8-219.1,440.5-208.4,440.5z"></path><circle fill="#000000" cx="-197" cy="446.2" r="1.8"></circle><circle fill="#000000" cx="-197" cy="453.6" r="1.8"></circle><circle fill="#000000" cx="-185.2" cy="412" r="1.8"></circle><circle fill="#000000" cx="-208.8" cy="412" r="1.8"></circle></svg>