<svg xmlns="http://www.w3.org/2000/svg" xmlns:xlink="http://www.w3.org/1999/xlink" version="1.1" x="0px" y="0px" viewBox="-247 370.9 100 100" enable-background="new -247 370.9 100 100" xml:space="preserve"><path fill="#000000" d="M-184.7,436.4c7.9-4.4,13.2-12.9,13.2-22.5c0-0.2,0-0.4,0-0.6h0.3c1,0,1.8-0.8,1.8-1.8c0-1-0.8-1.8-1.8-1.8  h-0.6c-2-12.3-12.7-21.7-25.5-21.7c-12.8,0-23.5,9.4-25.5,21.7h-0.5c-1,0-1.8,0.8-1.8,1.8c0,1,0.8,1.8,1.8,1.8h0.2  c0,0.2,0,0.4,0,0.6c0,9.7,5.3,18.1,13.2,22.5c-12.7,0.7-22.7,11.3-22.7,24.1c0,1,0.8,1.8,1.8,1.8h67.5c1,0,1.8-0.8,1.8-1.8  C-161.6,447.6-171.9,437-184.7,436.4z M-197.4,391.7c10.8,0,19.9,7.8,21.8,18.1h-4.7c-0.7-2.1-2.8-3.6-5.1-3.6  c-2.4,0-4.4,1.5-5.1,3.6h-13.4c-0.7-2.1-2.8-3.6-5.1-3.6c-2.4,0-4.4,1.5-5.1,3.6h-5.1C-217.2,399.5-208.2,391.7-197.4,391.7z   M-183.5,411.6c0,1-0.8,1.8-1.8,1.8c-1,0-1.8-0.8-1.8-1.8c0-1,0.8-1.8,1.8-1.8C-184.4,409.7-183.5,410.5-183.5,411.6z M-207.2,411.6  c0,1-0.8,1.8-1.8,1.8c-1,0-1.8-0.8-1.8-1.8c0-1,0.8-1.8,1.8-1.8C-208,409.7-207.2,410.5-207.2,411.6z M-219.6,413.9  c0-0.2,0-0.4,0-0.6h5.4c0.7,2.1,2.8,3.6,5.1,3.6s4.4-1.5,5.1-3.6h3.8l-3.6,7.6c0,0,0,0,0,0c0,0.1,0,0.1-0.1,0.2c0,0.1,0,0.1,0,0.2  c0,0.1,0,0.1,0,0.2c0,0.1,0,0.1,0,0.2c0,0,0,0,0,0c0,0,0,0.1,0,0.1c0,0.1,0,0.1,0,0.2c0,0.1,0,0.1,0,0.2c0,0.1,0,0.1,0.1,0.2  c0,0.1,0,0.1,0.1,0.2c0,0.1,0.1,0.1,0.1,0.2c0,0,0.1,0.1,0.1,0.1c0,0,0.1,0.1,0.1,0.1c0,0,0.1,0.1,0.1,0.1c0,0,0.1,0.1,0.1,0.1  c0.1,0,0.1,0.1,0.2,0.1c0,0,0.1,0,0.1,0.1c0,0,0,0,0,0c0.1,0,0.2,0.1,0.3,0.1c0,0,0.1,0,0.1,0c0.1,0,0.2,0,0.3,0c0,0,0,0,0.1,0  c0,0,0,0,0,0h4.6l-1.4,3c-0.4,0.9,0,2,0.9,2.4c0.3,0.1,0.5,0.2,0.8,0.2c0.7,0,1.3-0.4,1.6-1l2.6-5.6c0,0,0,0,0,0  c0-0.1,0-0.1,0.1-0.2c0-0.1,0-0.1,0-0.2c0-0.1,0-0.1,0-0.2c0-0.1,0-0.1,0-0.2c0,0,0,0,0,0c0,0,0-0.1,0-0.1c0-0.1,0-0.1,0-0.2  c0-0.1,0-0.1,0-0.2c0-0.1,0-0.1-0.1-0.2c0-0.1,0-0.1-0.1-0.2c0-0.1-0.1-0.1-0.1-0.2c0,0-0.1-0.1-0.1-0.1c0,0-0.1-0.1-0.1-0.1  c0,0-0.1-0.1-0.1-0.1c0,0-0.1-0.1-0.1-0.1c-0.1,0-0.1-0.1-0.2-0.1c0,0-0.1,0-0.1-0.1c0,0,0,0,0,0c-0.1,0-0.1,0-0.2-0.1  c-0.1,0-0.1,0-0.2,0c0,0-0.1,0-0.2,0c-0.1,0-0.1,0-0.2,0c0,0,0,0,0,0h-4.6l3.1-6.5h5.5c0.7,2.1,2.8,3.6,5.1,3.6s4.4-1.5,5.1-3.6h5.1  c0,0.2,0,0.4,0,0.6c0,12.3-10,22.2-22.2,22.2C-209.6,436.1-219.6,426.2-219.6,413.9z M-208.6,440h9.6v18.7h-30  C-228.1,448.3-219.3,440-208.6,440z M-183.6,458.8v-6.5h6.5v6.5H-183.6z M-173.4,458.8v-8.3c0-1-0.8-1.8-1.8-1.8h-2.1l-1.3-3.1  c-0.3-0.7-0.9-1.1-1.7-1.1s-1.4,0.4-1.7,1.1l-1.3,3.1h-2.1c-1,0-1.8,0.8-1.8,1.8v8.3h-8.2V440h9.6c10.7,0,19.5,8.2,20.4,18.7H-173.4  z"></path></svg>