<?xml version="1.0" encoding="utf-8"?>
<!-- Generator: Adobe Illustrator 16.0.0, SVG Export Plug-In . SVG Version: 6.00 Build 0)  -->
<!DOCTYPE svg PUBLIC "-//W3C//DTD SVG 1.1//EN" "http://www.w3.org/Graphics/SVG/1.1/DTD/svg11.dtd">
<svg version="1.1" id="Layer_1" xmlns="http://www.w3.org/2000/svg" xmlns:xlink="http://www.w3.org/1999/xlink" x="0px" y="0px"
	 width="20px" height="20px" viewBox="0 0 20 20" enable-background="new 0 0 20 20" xml:space="preserve">
<g>
	<path fill="#010101" d="M10,14.426c-0.695,0-1.257-0.562-1.257-1.257S9.305,11.912,10,11.912s1.257,0.562,1.257,1.257
		S10.695,14.426,10,14.426z M10,12.474c-0.374,0-0.669,0.294-0.669,0.668c0,0.375,0.295,0.669,0.669,0.669s0.668-0.294,0.668-0.669
		C10.668,12.794,10.374,12.474,10,12.474z"/>
	<path fill="#010101" d="M13.771,18.517H6.229c-1.016,0-1.845-0.829-1.845-1.845V9.238h11.23v7.434
		C15.615,17.688,14.786,18.517,13.771,18.517z M4.973,9.826v6.846c0,0.695,0.562,1.257,1.257,1.257h7.541
		c0.695,0,1.257-0.562,1.257-1.257V9.826H4.973z"/>
	<path fill="#010101" d="M6.363,9.72H5.802V5.682C5.802,3.355,7.7,1.483,10,1.483s4.198,1.898,4.198,4.198h-0.589
		c0-2.005-1.631-3.609-3.609-3.609c-2.006,0-3.609,1.631-3.609,3.609V9.72H6.363z"/>
	<path fill="#010101" d="M10,15.896c-0.16,0-0.294-0.133-0.294-0.294v-1.471c0-0.16,0.134-0.294,0.294-0.294
		s0.294,0.134,0.294,0.294v1.471C10.294,15.763,10.16,15.896,10,15.896z"/>
</g>
</svg>
