<?xml version="1.0" encoding="utf-8"?>
<!-- Generator: Adobe Illustrator 16.0.0, SVG Export Plug-In . SVG Version: 6.00 Build 0)  -->
<!DOCTYPE svg PUBLIC "-//W3C//DTD SVG 1.1//EN" "http://www.w3.org/Graphics/SVG/1.1/DTD/svg11.dtd">
<svg version="1.1" id="Layer_1" xmlns="http://www.w3.org/2000/svg" xmlns:xlink="http://www.w3.org/1999/xlink" x="0px" y="0px"
	 width="100px" height="100px" viewBox="0 0 100 100" enable-background="new 0 0 100 100" xml:space="preserve">
<path fill="#6482AD" d="M47.76,13.96c-13.6,0-25.44,7.6-31.6,18.721c1.6-0.16,3.2-0.32,4.8-0.32c6.32,0,12.32,1.439,17.68,3.92
	c0.64-2.32,2.8-4,5.36-4c2.88,0,5.28,2.16,5.6,4.959c3.759,1.281,7.599,3.121,10.8,5.281c0.879,0.64,1.84,1.6,1.84,2.719v0.16
	l7.199,1.36v2.64c0,5.041-4.559,9.201-9.6,9.201C46,59.8,33.92,68.04,27.521,79.64c5.84,4.08,12.8,6.4,20.4,6.4
	c19.919,0,35.919-16.08,35.919-36S67.68,13.96,47.76,13.96z"/>
<circle fill="#6482AD" cx="53.041" cy="44.76" r="2"/>
</svg>
