<?xml version="1.0" encoding="utf-8"?>
<!-- Generator: Adobe Illustrator 16.0.0, SVG Export Plug-In . SVG Version: 6.00 Build 0)  -->
<!DOCTYPE svg PUBLIC "-//W3C//DTD SVG 1.1//EN" "http://www.w3.org/Graphics/SVG/1.1/DTD/svg11.dtd">
<svg version="1.1" id="Layer_1" xmlns="http://www.w3.org/2000/svg" xmlns:xlink="http://www.w3.org/1999/xlink" x="0px" y="0px"
	 width="20px" height="20px" viewBox="0 0 20 20" enable-background="new 0 0 20 20" xml:space="preserve">
<g>
	<path fill="#010101" d="M12.533,10.18c0.738-0.695,1.154-1.653,1.154-2.68c0-2.033-1.654-3.688-3.688-3.688S6.312,5.467,6.312,7.5
		c0,1.026,0.417,1.984,1.154,2.68C5.139,10.913,3.812,12.652,3.812,15v1.188h12.375V15C16.188,12.652,14.861,10.913,12.533,10.18z
		 M15.812,15.812H4.188V15c0-1.182,0.349-2.186,1.036-2.982c0.634-0.735,1.56-1.279,2.677-1.573l0.367-0.096l-0.299-0.233
		C7.154,9.482,6.688,8.529,6.688,7.5c0-1.827,1.486-3.312,3.312-3.312c1.826,0,3.312,1.486,3.312,3.312
		c0,1.029-0.467,1.982-1.279,2.616l-0.3,0.233l0.366,0.096c1.117,0.293,2.043,0.837,2.678,1.573
		c0.687,0.797,1.035,1.801,1.035,2.982V15.812z"/>
</g>
</svg>
